<mxfile host="Electron" agent="Mozilla/5.0 (Macintosh; Intel Mac OS X 10_15_7) AppleWebKit/537.36 (KHTML, like Gecko) draw.io/27.0.9 Chrome/134.0.6998.205 Electron/35.4.0 Safari/537.36" version="27.0.9" pages="7">
  <diagram id="ndXdRicWJo8k07BRZqe4" name="topo1">
    <mxGraphModel dx="3585" dy="2010" grid="1" gridSize="10" guides="1" tooltips="1" connect="1" arrows="1" fold="1" page="1" pageScale="1" pageWidth="1169" pageHeight="827" math="0" shadow="0">
      <root>
        <mxCell id="0" />
        <mxCell id="1" parent="0" />
        <mxCell id="Ej-1WiNll3kSdFZIMe57-13" value="" style="endArrow=none;html=1;rounded=0;strokeWidth=3;" parent="1" edge="1">
          <mxGeometry width="50" height="50" relative="1" as="geometry">
            <mxPoint x="1319" y="326.95" as="sourcePoint" />
            <mxPoint x="1759" y="326.95" as="targetPoint" />
          </mxGeometry>
        </mxCell>
        <mxCell id="P-GLi1eiSQNG8AVTfN2y-58" value="" style="ellipse;whiteSpace=wrap;html=1;" parent="1" vertex="1">
          <mxGeometry x="612" y="1400" width="276" height="160" as="geometry" />
        </mxCell>
        <mxCell id="P-GLi1eiSQNG8AVTfN2y-57" value="" style="ellipse;whiteSpace=wrap;html=1;" parent="1" vertex="1">
          <mxGeometry x="234.13" y="1420" width="281.75" height="140" as="geometry" />
        </mxCell>
        <mxCell id="P-GLi1eiSQNG8AVTfN2y-56" value="" style="ellipse;whiteSpace=wrap;html=1;" parent="1" vertex="1">
          <mxGeometry x="662" y="990" width="256" height="180" as="geometry" />
        </mxCell>
        <mxCell id="P-GLi1eiSQNG8AVTfN2y-54" value="" style="ellipse;whiteSpace=wrap;html=1;" parent="1" vertex="1">
          <mxGeometry x="383" y="1150" width="358" height="260" as="geometry" />
        </mxCell>
        <mxCell id="P-GLi1eiSQNG8AVTfN2y-53" value="" style="ellipse;whiteSpace=wrap;html=1;" parent="1" vertex="1">
          <mxGeometry x="172" y="990" width="310" height="170" as="geometry" />
        </mxCell>
        <mxCell id="G6vbKACuznelaY5o7WD0-1" value="" style="ellipse;whiteSpace=wrap;html=1;fontSize=20;fillColor=none;strokeColor=#6c8ebf;" parent="1" vertex="1">
          <mxGeometry x="100" y="80" width="362" height="290" as="geometry" />
        </mxCell>
        <mxCell id="G6vbKACuznelaY5o7WD0-2" value="" style="ellipse;whiteSpace=wrap;html=1;fontSize=20;fillColor=none;strokeColor=#6c8ebf;" parent="1" vertex="1">
          <mxGeometry x="642" y="80" width="362" height="290" as="geometry" />
        </mxCell>
        <mxCell id="G6vbKACuznelaY5o7WD0-3" value="" style="shape=mxgraph.cisco.routers.router;sketch=0;html=1;pointerEvents=1;dashed=0;fillColor=#036897;strokeColor=#ffffff;strokeWidth=2;verticalLabelPosition=bottom;verticalAlign=top;align=center;outlineConnect=0;" parent="1" vertex="1">
          <mxGeometry x="132" y="175" width="78" height="53" as="geometry" />
        </mxCell>
        <mxCell id="G6vbKACuznelaY5o7WD0-4" value="" style="shape=mxgraph.cisco.routers.router;sketch=0;html=1;pointerEvents=1;dashed=0;fillColor=#036897;strokeColor=#ffffff;strokeWidth=2;verticalLabelPosition=bottom;verticalAlign=top;align=center;outlineConnect=0;" parent="1" vertex="1">
          <mxGeometry x="332" y="175" width="78" height="53" as="geometry" />
        </mxCell>
        <mxCell id="G6vbKACuznelaY5o7WD0-5" value="" style="shape=mxgraph.cisco.routers.router;sketch=0;html=1;pointerEvents=1;dashed=0;fillColor=#036897;strokeColor=#ffffff;strokeWidth=2;verticalLabelPosition=bottom;verticalAlign=top;align=center;outlineConnect=0;" parent="1" vertex="1">
          <mxGeometry x="242" y="275" width="78" height="53" as="geometry" />
        </mxCell>
        <mxCell id="G6vbKACuznelaY5o7WD0-6" value="" style="endArrow=none;html=1;rounded=0;exitX=0.12;exitY=0.1;exitDx=0;exitDy=0;exitPerimeter=0;entryX=0.5;entryY=1;entryDx=0;entryDy=0;entryPerimeter=0;" parent="1" source="G6vbKACuznelaY5o7WD0-5" target="G6vbKACuznelaY5o7WD0-3" edge="1">
          <mxGeometry width="50" height="50" relative="1" as="geometry">
            <mxPoint x="192" y="275" as="sourcePoint" />
            <mxPoint x="192" y="225" as="targetPoint" />
          </mxGeometry>
        </mxCell>
        <mxCell id="G6vbKACuznelaY5o7WD0-7" value="" style="endArrow=none;html=1;rounded=0;exitX=1;exitY=0.5;exitDx=0;exitDy=0;exitPerimeter=0;entryX=0;entryY=0.5;entryDx=0;entryDy=0;entryPerimeter=0;" parent="1" source="G6vbKACuznelaY5o7WD0-3" target="G6vbKACuznelaY5o7WD0-4" edge="1">
          <mxGeometry width="50" height="50" relative="1" as="geometry">
            <mxPoint x="232" y="235" as="sourcePoint" />
            <mxPoint x="282" y="185" as="targetPoint" />
          </mxGeometry>
        </mxCell>
        <mxCell id="G6vbKACuznelaY5o7WD0-8" value="" style="endArrow=none;html=1;rounded=0;entryX=0.5;entryY=1;entryDx=0;entryDy=0;entryPerimeter=0;exitX=0.88;exitY=0.1;exitDx=0;exitDy=0;exitPerimeter=0;" parent="1" source="G6vbKACuznelaY5o7WD0-5" target="G6vbKACuznelaY5o7WD0-4" edge="1">
          <mxGeometry width="50" height="50" relative="1" as="geometry">
            <mxPoint x="362" y="405" as="sourcePoint" />
            <mxPoint x="412" y="355" as="targetPoint" />
          </mxGeometry>
        </mxCell>
        <mxCell id="G6vbKACuznelaY5o7WD0-9" value="&lt;font style=&quot;font-size: 20px;&quot;&gt;ospf&lt;/font&gt;" style="text;html=1;align=center;verticalAlign=middle;resizable=0;points=[];autosize=1;strokeColor=none;fillColor=none;fontSize=20;" parent="1" vertex="1">
          <mxGeometry x="247" y="170" width="50" height="30" as="geometry" />
        </mxCell>
        <mxCell id="G6vbKACuznelaY5o7WD0-10" value="&lt;font style=&quot;font-size: 20px;&quot;&gt;ospf&lt;/font&gt;" style="text;html=1;align=center;verticalAlign=middle;resizable=0;points=[];autosize=1;strokeColor=none;fillColor=none;fontSize=20;" parent="1" vertex="1">
          <mxGeometry x="160" y="265" width="50" height="30" as="geometry" />
        </mxCell>
        <mxCell id="G6vbKACuznelaY5o7WD0-11" value="&lt;font style=&quot;font-size: 20px;&quot;&gt;ospf&lt;/font&gt;" style="text;html=1;align=center;verticalAlign=middle;resizable=0;points=[];autosize=1;strokeColor=none;fillColor=none;fontSize=20;" parent="1" vertex="1">
          <mxGeometry x="336" y="255" width="50" height="30" as="geometry" />
        </mxCell>
        <mxCell id="G6vbKACuznelaY5o7WD0-12" value="AS1" style="text;html=1;strokeColor=none;fillColor=none;align=center;verticalAlign=middle;whiteSpace=wrap;rounded=0;fontSize=30;" parent="1" vertex="1">
          <mxGeometry x="251" y="100" width="60" height="30" as="geometry" />
        </mxCell>
        <mxCell id="G6vbKACuznelaY5o7WD0-13" value="" style="shape=mxgraph.cisco.routers.router;sketch=0;html=1;pointerEvents=1;dashed=0;fillColor=#036897;strokeColor=#ffffff;strokeWidth=2;verticalLabelPosition=bottom;verticalAlign=top;align=center;outlineConnect=0;" parent="1" vertex="1">
          <mxGeometry x="674" y="175" width="78" height="53" as="geometry" />
        </mxCell>
        <mxCell id="G6vbKACuznelaY5o7WD0-14" value="" style="shape=mxgraph.cisco.routers.router;sketch=0;html=1;pointerEvents=1;dashed=0;fillColor=#036897;strokeColor=#ffffff;strokeWidth=2;verticalLabelPosition=bottom;verticalAlign=top;align=center;outlineConnect=0;" parent="1" vertex="1">
          <mxGeometry x="874" y="175" width="78" height="53" as="geometry" />
        </mxCell>
        <mxCell id="G6vbKACuznelaY5o7WD0-15" value="" style="shape=mxgraph.cisco.routers.router;sketch=0;html=1;pointerEvents=1;dashed=0;fillColor=#036897;strokeColor=#ffffff;strokeWidth=2;verticalLabelPosition=bottom;verticalAlign=top;align=center;outlineConnect=0;" parent="1" vertex="1">
          <mxGeometry x="784" y="275" width="78" height="53" as="geometry" />
        </mxCell>
        <mxCell id="G6vbKACuznelaY5o7WD0-16" value="" style="endArrow=none;html=1;rounded=0;exitX=0.12;exitY=0.1;exitDx=0;exitDy=0;exitPerimeter=0;entryX=0.5;entryY=1;entryDx=0;entryDy=0;entryPerimeter=0;" parent="1" source="G6vbKACuznelaY5o7WD0-15" target="G6vbKACuznelaY5o7WD0-13" edge="1">
          <mxGeometry width="50" height="50" relative="1" as="geometry">
            <mxPoint x="734" y="275" as="sourcePoint" />
            <mxPoint x="734" y="225" as="targetPoint" />
          </mxGeometry>
        </mxCell>
        <mxCell id="G6vbKACuznelaY5o7WD0-17" value="" style="endArrow=none;html=1;rounded=0;exitX=1;exitY=0.5;exitDx=0;exitDy=0;exitPerimeter=0;entryX=0;entryY=0.5;entryDx=0;entryDy=0;entryPerimeter=0;" parent="1" source="G6vbKACuznelaY5o7WD0-13" target="G6vbKACuznelaY5o7WD0-14" edge="1">
          <mxGeometry width="50" height="50" relative="1" as="geometry">
            <mxPoint x="774" y="235" as="sourcePoint" />
            <mxPoint x="824" y="185" as="targetPoint" />
          </mxGeometry>
        </mxCell>
        <mxCell id="G6vbKACuznelaY5o7WD0-18" value="" style="endArrow=none;html=1;rounded=0;entryX=0.5;entryY=1;entryDx=0;entryDy=0;entryPerimeter=0;exitX=0.88;exitY=0.1;exitDx=0;exitDy=0;exitPerimeter=0;" parent="1" source="G6vbKACuznelaY5o7WD0-15" target="G6vbKACuznelaY5o7WD0-14" edge="1">
          <mxGeometry width="50" height="50" relative="1" as="geometry">
            <mxPoint x="904" y="405" as="sourcePoint" />
            <mxPoint x="954" y="355" as="targetPoint" />
          </mxGeometry>
        </mxCell>
        <mxCell id="G6vbKACuznelaY5o7WD0-19" value="&lt;font style=&quot;font-size: 20px;&quot;&gt;rip&lt;/font&gt;" style="text;html=1;align=center;verticalAlign=middle;resizable=0;points=[];autosize=1;strokeColor=none;fillColor=none;fontSize=20;" parent="1" vertex="1">
          <mxGeometry x="794" y="170" width="40" height="30" as="geometry" />
        </mxCell>
        <mxCell id="G6vbKACuznelaY5o7WD0-20" value="&lt;font style=&quot;font-size: 20px;&quot;&gt;rip&lt;/font&gt;" style="text;html=1;align=center;verticalAlign=middle;resizable=0;points=[];autosize=1;strokeColor=none;fillColor=none;fontSize=20;" parent="1" vertex="1">
          <mxGeometry x="707" y="265" width="40" height="30" as="geometry" />
        </mxCell>
        <mxCell id="G6vbKACuznelaY5o7WD0-21" value="&lt;font style=&quot;font-size: 20px;&quot;&gt;rip&lt;/font&gt;" style="text;html=1;align=center;verticalAlign=middle;resizable=0;points=[];autosize=1;strokeColor=none;fillColor=none;fontSize=20;" parent="1" vertex="1">
          <mxGeometry x="883" y="255" width="40" height="30" as="geometry" />
        </mxCell>
        <mxCell id="G6vbKACuznelaY5o7WD0-22" value="AS2" style="text;html=1;strokeColor=none;fillColor=none;align=center;verticalAlign=middle;whiteSpace=wrap;rounded=0;fontSize=30;" parent="1" vertex="1">
          <mxGeometry x="793" y="100" width="60" height="30" as="geometry" />
        </mxCell>
        <mxCell id="G6vbKACuznelaY5o7WD0-23" value="bgp" style="text;html=1;strokeColor=none;fillColor=none;align=center;verticalAlign=middle;whiteSpace=wrap;rounded=0;fontSize=20;" parent="1" vertex="1">
          <mxGeometry x="522" y="160" width="60" height="30" as="geometry" />
        </mxCell>
        <mxCell id="G6vbKACuznelaY5o7WD0-24" value="" style="endArrow=none;html=1;rounded=0;fontSize=20;entryX=0.008;entryY=0.421;entryDx=0;entryDy=0;entryPerimeter=0;exitX=1;exitY=0.552;exitDx=0;exitDy=0;exitPerimeter=0;" parent="1" source="G6vbKACuznelaY5o7WD0-1" target="G6vbKACuznelaY5o7WD0-2" edge="1">
          <mxGeometry width="50" height="50" relative="1" as="geometry">
            <mxPoint x="462" y="245" as="sourcePoint" />
            <mxPoint x="612" y="205" as="targetPoint" />
            <Array as="points">
              <mxPoint x="572" y="245" />
              <mxPoint x="532" y="202" />
            </Array>
          </mxGeometry>
        </mxCell>
        <mxCell id="G6vbKACuznelaY5o7WD0-25" value="" style="endArrow=none;html=1;rounded=0;fontSize=20;exitX=0.55;exitY=1.01;exitDx=0;exitDy=0;exitPerimeter=0;entryX=0.2;entryY=0.25;entryDx=0;entryDy=0;entryPerimeter=0;" parent="1" source="G6vbKACuznelaY5o7WD0-1" target="G6vbKACuznelaY5o7WD0-26" edge="1">
          <mxGeometry width="50" height="50" relative="1" as="geometry">
            <mxPoint x="311" y="480.08000000000004" as="sourcePoint" />
            <mxPoint x="493.89599999999996" y="442.09000000000003" as="targetPoint" />
            <Array as="points">
              <mxPoint x="412" y="420" />
              <mxPoint x="421" y="380" />
            </Array>
          </mxGeometry>
        </mxCell>
        <mxCell id="G6vbKACuznelaY5o7WD0-26" value="Internet" style="ellipse;shape=cloud;whiteSpace=wrap;html=1;fontSize=20;fillColor=none;" parent="1" vertex="1">
          <mxGeometry x="482" y="420" width="120" height="80" as="geometry" />
        </mxCell>
        <mxCell id="G6vbKACuznelaY5o7WD0-27" value="" style="endArrow=none;html=1;rounded=0;fontSize=20;exitX=0.833;exitY=0.25;exitDx=0;exitDy=0;exitPerimeter=0;" parent="1" source="G6vbKACuznelaY5o7WD0-26" target="G6vbKACuznelaY5o7WD0-2" edge="1">
          <mxGeometry width="50" height="50" relative="1" as="geometry">
            <mxPoint x="585.1399999999999" y="400.0000000000001" as="sourcePoint" />
            <mxPoint x="794" y="495.1" as="targetPoint" />
            <Array as="points">
              <mxPoint x="672" y="380" />
              <mxPoint x="602" y="370" />
            </Array>
          </mxGeometry>
        </mxCell>
        <mxCell id="P-GLi1eiSQNG8AVTfN2y-1" value="" style="ellipse;whiteSpace=wrap;html=1;fontSize=20;fillColor=none;strokeColor=#6c8ebf;" parent="1" vertex="1">
          <mxGeometry x="120" y="550" width="362" height="290" as="geometry" />
        </mxCell>
        <mxCell id="P-GLi1eiSQNG8AVTfN2y-2" value="" style="ellipse;whiteSpace=wrap;html=1;fontSize=20;fillColor=none;strokeColor=#6c8ebf;" parent="1" vertex="1">
          <mxGeometry x="662" y="550" width="362" height="290" as="geometry" />
        </mxCell>
        <mxCell id="P-GLi1eiSQNG8AVTfN2y-3" value="" style="shape=mxgraph.cisco.routers.router;sketch=0;html=1;pointerEvents=1;dashed=0;fillColor=#036897;strokeColor=#ffffff;strokeWidth=2;verticalLabelPosition=bottom;verticalAlign=top;align=center;outlineConnect=0;" parent="1" vertex="1">
          <mxGeometry x="152" y="645" width="78" height="53" as="geometry" />
        </mxCell>
        <mxCell id="P-GLi1eiSQNG8AVTfN2y-4" value="" style="shape=mxgraph.cisco.routers.router;sketch=0;html=1;pointerEvents=1;dashed=0;fillColor=#036897;strokeColor=#ffffff;strokeWidth=2;verticalLabelPosition=bottom;verticalAlign=top;align=center;outlineConnect=0;" parent="1" vertex="1">
          <mxGeometry x="352" y="645" width="78" height="53" as="geometry" />
        </mxCell>
        <mxCell id="P-GLi1eiSQNG8AVTfN2y-5" value="" style="shape=mxgraph.cisco.routers.router;sketch=0;html=1;pointerEvents=1;dashed=0;fillColor=#036897;strokeColor=#ffffff;strokeWidth=2;verticalLabelPosition=bottom;verticalAlign=top;align=center;outlineConnect=0;" parent="1" vertex="1">
          <mxGeometry x="262" y="745" width="78" height="53" as="geometry" />
        </mxCell>
        <mxCell id="P-GLi1eiSQNG8AVTfN2y-6" value="" style="endArrow=none;html=1;rounded=0;exitX=0.12;exitY=0.1;exitDx=0;exitDy=0;exitPerimeter=0;entryX=0.5;entryY=1;entryDx=0;entryDy=0;entryPerimeter=0;" parent="1" source="P-GLi1eiSQNG8AVTfN2y-5" target="P-GLi1eiSQNG8AVTfN2y-3" edge="1">
          <mxGeometry width="50" height="50" relative="1" as="geometry">
            <mxPoint x="212" y="745" as="sourcePoint" />
            <mxPoint x="212" y="695" as="targetPoint" />
          </mxGeometry>
        </mxCell>
        <mxCell id="P-GLi1eiSQNG8AVTfN2y-7" value="" style="endArrow=none;html=1;rounded=0;exitX=1;exitY=0.5;exitDx=0;exitDy=0;exitPerimeter=0;entryX=0;entryY=0.5;entryDx=0;entryDy=0;entryPerimeter=0;" parent="1" source="P-GLi1eiSQNG8AVTfN2y-3" target="P-GLi1eiSQNG8AVTfN2y-4" edge="1">
          <mxGeometry width="50" height="50" relative="1" as="geometry">
            <mxPoint x="252" y="705" as="sourcePoint" />
            <mxPoint x="302" y="655" as="targetPoint" />
          </mxGeometry>
        </mxCell>
        <mxCell id="P-GLi1eiSQNG8AVTfN2y-8" value="" style="endArrow=none;html=1;rounded=0;entryX=0.5;entryY=1;entryDx=0;entryDy=0;entryPerimeter=0;exitX=0.88;exitY=0.1;exitDx=0;exitDy=0;exitPerimeter=0;" parent="1" source="P-GLi1eiSQNG8AVTfN2y-5" target="P-GLi1eiSQNG8AVTfN2y-4" edge="1">
          <mxGeometry width="50" height="50" relative="1" as="geometry">
            <mxPoint x="382" y="875" as="sourcePoint" />
            <mxPoint x="432" y="825" as="targetPoint" />
          </mxGeometry>
        </mxCell>
        <mxCell id="P-GLi1eiSQNG8AVTfN2y-9" value="&lt;font style=&quot;font-size: 20px;&quot;&gt;ospfv3&lt;/font&gt;" style="text;html=1;align=center;verticalAlign=middle;resizable=0;points=[];autosize=1;strokeColor=none;fillColor=none;fontSize=20;" parent="1" vertex="1">
          <mxGeometry x="252" y="635" width="80" height="40" as="geometry" />
        </mxCell>
        <mxCell id="P-GLi1eiSQNG8AVTfN2y-10" value="&lt;font style=&quot;font-size: 20px;&quot;&gt;ospfv3&lt;/font&gt;" style="text;html=1;align=center;verticalAlign=middle;resizable=0;points=[];autosize=1;strokeColor=none;fillColor=none;fontSize=20;" parent="1" vertex="1">
          <mxGeometry x="165" y="730" width="80" height="40" as="geometry" />
        </mxCell>
        <mxCell id="P-GLi1eiSQNG8AVTfN2y-11" value="&lt;font style=&quot;font-size: 20px;&quot;&gt;ospfv3&lt;/font&gt;" style="text;html=1;align=center;verticalAlign=middle;resizable=0;points=[];autosize=1;strokeColor=none;fillColor=none;fontSize=20;" parent="1" vertex="1">
          <mxGeometry x="341" y="720" width="80" height="40" as="geometry" />
        </mxCell>
        <mxCell id="P-GLi1eiSQNG8AVTfN2y-12" value="AS1" style="text;html=1;strokeColor=none;fillColor=none;align=center;verticalAlign=middle;whiteSpace=wrap;rounded=0;fontSize=30;" parent="1" vertex="1">
          <mxGeometry x="271" y="570" width="60" height="30" as="geometry" />
        </mxCell>
        <mxCell id="P-GLi1eiSQNG8AVTfN2y-13" value="" style="shape=mxgraph.cisco.routers.router;sketch=0;html=1;pointerEvents=1;dashed=0;fillColor=#036897;strokeColor=#ffffff;strokeWidth=2;verticalLabelPosition=bottom;verticalAlign=top;align=center;outlineConnect=0;" parent="1" vertex="1">
          <mxGeometry x="694" y="645" width="78" height="53" as="geometry" />
        </mxCell>
        <mxCell id="P-GLi1eiSQNG8AVTfN2y-14" value="" style="shape=mxgraph.cisco.routers.router;sketch=0;html=1;pointerEvents=1;dashed=0;fillColor=#036897;strokeColor=#ffffff;strokeWidth=2;verticalLabelPosition=bottom;verticalAlign=top;align=center;outlineConnect=0;" parent="1" vertex="1">
          <mxGeometry x="894" y="645" width="78" height="53" as="geometry" />
        </mxCell>
        <mxCell id="P-GLi1eiSQNG8AVTfN2y-15" value="" style="shape=mxgraph.cisco.routers.router;sketch=0;html=1;pointerEvents=1;dashed=0;fillColor=#036897;strokeColor=#ffffff;strokeWidth=2;verticalLabelPosition=bottom;verticalAlign=top;align=center;outlineConnect=0;" parent="1" vertex="1">
          <mxGeometry x="804" y="745" width="78" height="53" as="geometry" />
        </mxCell>
        <mxCell id="P-GLi1eiSQNG8AVTfN2y-16" value="" style="endArrow=none;html=1;rounded=0;exitX=0.12;exitY=0.1;exitDx=0;exitDy=0;exitPerimeter=0;entryX=0.5;entryY=1;entryDx=0;entryDy=0;entryPerimeter=0;" parent="1" source="P-GLi1eiSQNG8AVTfN2y-15" target="P-GLi1eiSQNG8AVTfN2y-13" edge="1">
          <mxGeometry width="50" height="50" relative="1" as="geometry">
            <mxPoint x="754" y="745" as="sourcePoint" />
            <mxPoint x="754" y="695" as="targetPoint" />
          </mxGeometry>
        </mxCell>
        <mxCell id="P-GLi1eiSQNG8AVTfN2y-17" value="" style="endArrow=none;html=1;rounded=0;exitX=1;exitY=0.5;exitDx=0;exitDy=0;exitPerimeter=0;entryX=0;entryY=0.5;entryDx=0;entryDy=0;entryPerimeter=0;" parent="1" source="P-GLi1eiSQNG8AVTfN2y-13" target="P-GLi1eiSQNG8AVTfN2y-14" edge="1">
          <mxGeometry width="50" height="50" relative="1" as="geometry">
            <mxPoint x="794" y="705" as="sourcePoint" />
            <mxPoint x="844" y="655" as="targetPoint" />
          </mxGeometry>
        </mxCell>
        <mxCell id="P-GLi1eiSQNG8AVTfN2y-18" value="" style="endArrow=none;html=1;rounded=0;entryX=0.5;entryY=1;entryDx=0;entryDy=0;entryPerimeter=0;exitX=0.88;exitY=0.1;exitDx=0;exitDy=0;exitPerimeter=0;" parent="1" source="P-GLi1eiSQNG8AVTfN2y-15" target="P-GLi1eiSQNG8AVTfN2y-14" edge="1">
          <mxGeometry width="50" height="50" relative="1" as="geometry">
            <mxPoint x="924" y="875" as="sourcePoint" />
            <mxPoint x="974" y="825" as="targetPoint" />
          </mxGeometry>
        </mxCell>
        <mxCell id="P-GLi1eiSQNG8AVTfN2y-19" value="&lt;font style=&quot;font-size: 20px;&quot;&gt;ripng&lt;/font&gt;" style="text;html=1;align=center;verticalAlign=middle;resizable=0;points=[];autosize=1;strokeColor=none;fillColor=none;fontSize=20;" parent="1" vertex="1">
          <mxGeometry x="799" y="635" width="70" height="40" as="geometry" />
        </mxCell>
        <mxCell id="P-GLi1eiSQNG8AVTfN2y-20" value="&lt;font style=&quot;font-size: 20px;&quot;&gt;ripng&lt;/font&gt;" style="text;html=1;align=center;verticalAlign=middle;resizable=0;points=[];autosize=1;strokeColor=none;fillColor=none;fontSize=20;" parent="1" vertex="1">
          <mxGeometry x="712" y="730" width="70" height="40" as="geometry" />
        </mxCell>
        <mxCell id="P-GLi1eiSQNG8AVTfN2y-21" value="&lt;font style=&quot;font-size: 20px;&quot;&gt;ripng&lt;/font&gt;" style="text;html=1;align=center;verticalAlign=middle;resizable=0;points=[];autosize=1;strokeColor=none;fillColor=none;fontSize=20;" parent="1" vertex="1">
          <mxGeometry x="888" y="720" width="70" height="40" as="geometry" />
        </mxCell>
        <mxCell id="P-GLi1eiSQNG8AVTfN2y-22" value="AS2" style="text;html=1;strokeColor=none;fillColor=none;align=center;verticalAlign=middle;whiteSpace=wrap;rounded=0;fontSize=30;" parent="1" vertex="1">
          <mxGeometry x="813" y="570" width="60" height="30" as="geometry" />
        </mxCell>
        <mxCell id="P-GLi1eiSQNG8AVTfN2y-23" value="bgp" style="text;html=1;strokeColor=none;fillColor=none;align=center;verticalAlign=middle;whiteSpace=wrap;rounded=0;fontSize=20;" parent="1" vertex="1">
          <mxGeometry x="542" y="630" width="60" height="30" as="geometry" />
        </mxCell>
        <mxCell id="P-GLi1eiSQNG8AVTfN2y-24" value="" style="endArrow=none;html=1;rounded=0;fontSize=20;entryX=0.008;entryY=0.421;entryDx=0;entryDy=0;entryPerimeter=0;exitX=1;exitY=0.552;exitDx=0;exitDy=0;exitPerimeter=0;" parent="1" source="P-GLi1eiSQNG8AVTfN2y-1" target="P-GLi1eiSQNG8AVTfN2y-2" edge="1">
          <mxGeometry width="50" height="50" relative="1" as="geometry">
            <mxPoint x="482" y="715" as="sourcePoint" />
            <mxPoint x="632" y="675" as="targetPoint" />
            <Array as="points">
              <mxPoint x="592" y="715" />
              <mxPoint x="552" y="672" />
            </Array>
          </mxGeometry>
        </mxCell>
        <mxCell id="P-GLi1eiSQNG8AVTfN2y-25" value="" style="endArrow=none;html=1;rounded=0;fontSize=20;exitX=0.55;exitY=1.01;exitDx=0;exitDy=0;exitPerimeter=0;entryX=0.2;entryY=0.25;entryDx=0;entryDy=0;entryPerimeter=0;" parent="1" source="P-GLi1eiSQNG8AVTfN2y-1" target="P-GLi1eiSQNG8AVTfN2y-26" edge="1">
          <mxGeometry width="50" height="50" relative="1" as="geometry">
            <mxPoint x="331" y="950.08" as="sourcePoint" />
            <mxPoint x="513.896" y="912.09" as="targetPoint" />
            <Array as="points">
              <mxPoint x="432" y="890" />
              <mxPoint x="441" y="850" />
            </Array>
          </mxGeometry>
        </mxCell>
        <mxCell id="P-GLi1eiSQNG8AVTfN2y-26" value="Internet" style="ellipse;shape=cloud;whiteSpace=wrap;html=1;fontSize=20;fillColor=none;" parent="1" vertex="1">
          <mxGeometry x="502" y="890" width="120" height="80" as="geometry" />
        </mxCell>
        <mxCell id="P-GLi1eiSQNG8AVTfN2y-27" value="" style="endArrow=none;html=1;rounded=0;fontSize=20;exitX=0.833;exitY=0.25;exitDx=0;exitDy=0;exitPerimeter=0;" parent="1" source="P-GLi1eiSQNG8AVTfN2y-26" target="P-GLi1eiSQNG8AVTfN2y-2" edge="1">
          <mxGeometry width="50" height="50" relative="1" as="geometry">
            <mxPoint x="605.1399999999999" y="870.0000000000001" as="sourcePoint" />
            <mxPoint x="814" y="965.1" as="targetPoint" />
            <Array as="points">
              <mxPoint x="692" y="850" />
              <mxPoint x="622" y="840" />
            </Array>
          </mxGeometry>
        </mxCell>
        <mxCell id="P-GLi1eiSQNG8AVTfN2y-40" style="edgeStyle=orthogonalEdgeStyle;rounded=0;orthogonalLoop=1;jettySize=auto;html=1;exitX=1;exitY=0.5;exitDx=0;exitDy=0;exitPerimeter=0;entryX=0;entryY=0.5;entryDx=0;entryDy=0;entryPerimeter=0;endArrow=none;endFill=0;" parent="1" source="P-GLi1eiSQNG8AVTfN2y-28" target="P-GLi1eiSQNG8AVTfN2y-29" edge="1">
          <mxGeometry relative="1" as="geometry" />
        </mxCell>
        <mxCell id="P-GLi1eiSQNG8AVTfN2y-41" style="edgeStyle=orthogonalEdgeStyle;rounded=0;orthogonalLoop=1;jettySize=auto;html=1;exitX=0.5;exitY=1;exitDx=0;exitDy=0;exitPerimeter=0;entryX=0.5;entryY=0;entryDx=0;entryDy=0;entryPerimeter=0;endArrow=none;endFill=0;" parent="1" source="P-GLi1eiSQNG8AVTfN2y-28" target="P-GLi1eiSQNG8AVTfN2y-30" edge="1">
          <mxGeometry relative="1" as="geometry" />
        </mxCell>
        <mxCell id="P-GLi1eiSQNG8AVTfN2y-51" style="edgeStyle=none;rounded=0;orthogonalLoop=1;jettySize=auto;html=1;exitX=0.5;exitY=0;exitDx=0;exitDy=0;exitPerimeter=0;entryX=0.88;entryY=0.9;entryDx=0;entryDy=0;entryPerimeter=0;endArrow=none;endFill=0;" parent="1" source="P-GLi1eiSQNG8AVTfN2y-28" target="P-GLi1eiSQNG8AVTfN2y-32" edge="1">
          <mxGeometry relative="1" as="geometry" />
        </mxCell>
        <mxCell id="P-GLi1eiSQNG8AVTfN2y-28" value="" style="shape=mxgraph.cisco.routers.router;sketch=0;html=1;pointerEvents=1;dashed=0;fillColor=#036897;strokeColor=#ffffff;strokeWidth=2;verticalLabelPosition=bottom;verticalAlign=top;align=center;outlineConnect=0;" parent="1" vertex="1">
          <mxGeometry x="430" y="1180" width="78" height="53" as="geometry" />
        </mxCell>
        <mxCell id="P-GLi1eiSQNG8AVTfN2y-42" style="edgeStyle=orthogonalEdgeStyle;rounded=0;orthogonalLoop=1;jettySize=auto;html=1;exitX=0.5;exitY=1;exitDx=0;exitDy=0;exitPerimeter=0;entryX=0.5;entryY=0;entryDx=0;entryDy=0;entryPerimeter=0;endArrow=none;endFill=0;" parent="1" source="P-GLi1eiSQNG8AVTfN2y-29" target="P-GLi1eiSQNG8AVTfN2y-31" edge="1">
          <mxGeometry relative="1" as="geometry" />
        </mxCell>
        <mxCell id="P-GLi1eiSQNG8AVTfN2y-49" style="edgeStyle=none;rounded=0;orthogonalLoop=1;jettySize=auto;html=1;exitX=0.5;exitY=0;exitDx=0;exitDy=0;exitPerimeter=0;entryX=0.12;entryY=0.9;entryDx=0;entryDy=0;entryPerimeter=0;endArrow=none;endFill=0;" parent="1" source="P-GLi1eiSQNG8AVTfN2y-29" target="P-GLi1eiSQNG8AVTfN2y-35" edge="1">
          <mxGeometry relative="1" as="geometry" />
        </mxCell>
        <mxCell id="P-GLi1eiSQNG8AVTfN2y-29" value="" style="shape=mxgraph.cisco.routers.router;sketch=0;html=1;pointerEvents=1;dashed=0;fillColor=#036897;strokeColor=#ffffff;strokeWidth=2;verticalLabelPosition=bottom;verticalAlign=top;align=center;outlineConnect=0;" parent="1" vertex="1">
          <mxGeometry x="610" y="1180" width="78" height="53" as="geometry" />
        </mxCell>
        <mxCell id="P-GLi1eiSQNG8AVTfN2y-43" style="edgeStyle=orthogonalEdgeStyle;rounded=0;orthogonalLoop=1;jettySize=auto;html=1;exitX=1;exitY=0.5;exitDx=0;exitDy=0;exitPerimeter=0;entryX=0;entryY=0.5;entryDx=0;entryDy=0;entryPerimeter=0;endArrow=none;endFill=0;" parent="1" source="P-GLi1eiSQNG8AVTfN2y-30" target="P-GLi1eiSQNG8AVTfN2y-31" edge="1">
          <mxGeometry relative="1" as="geometry" />
        </mxCell>
        <mxCell id="P-GLi1eiSQNG8AVTfN2y-44" style="rounded=0;orthogonalLoop=1;jettySize=auto;html=1;exitX=0.5;exitY=1;exitDx=0;exitDy=0;exitPerimeter=0;entryX=0.5;entryY=0;entryDx=0;entryDy=0;entryPerimeter=0;endArrow=none;endFill=0;" parent="1" source="P-GLi1eiSQNG8AVTfN2y-30" target="P-GLi1eiSQNG8AVTfN2y-36" edge="1">
          <mxGeometry relative="1" as="geometry" />
        </mxCell>
        <mxCell id="P-GLi1eiSQNG8AVTfN2y-45" style="edgeStyle=none;rounded=0;orthogonalLoop=1;jettySize=auto;html=1;exitX=0.5;exitY=1;exitDx=0;exitDy=0;exitPerimeter=0;entryX=0.5;entryY=0;entryDx=0;entryDy=0;entryPerimeter=0;endArrow=none;endFill=0;" parent="1" source="P-GLi1eiSQNG8AVTfN2y-30" target="P-GLi1eiSQNG8AVTfN2y-37" edge="1">
          <mxGeometry relative="1" as="geometry" />
        </mxCell>
        <mxCell id="P-GLi1eiSQNG8AVTfN2y-30" value="" style="shape=mxgraph.cisco.routers.router;sketch=0;html=1;pointerEvents=1;dashed=0;fillColor=#036897;strokeColor=#ffffff;strokeWidth=2;verticalLabelPosition=bottom;verticalAlign=top;align=center;outlineConnect=0;" parent="1" vertex="1">
          <mxGeometry x="430" y="1320" width="78" height="53" as="geometry" />
        </mxCell>
        <mxCell id="P-GLi1eiSQNG8AVTfN2y-47" style="edgeStyle=none;rounded=0;orthogonalLoop=1;jettySize=auto;html=1;exitX=0.5;exitY=1;exitDx=0;exitDy=0;exitPerimeter=0;entryX=0.5;entryY=0;entryDx=0;entryDy=0;entryPerimeter=0;endArrow=none;endFill=0;" parent="1" source="P-GLi1eiSQNG8AVTfN2y-31" target="P-GLi1eiSQNG8AVTfN2y-38" edge="1">
          <mxGeometry relative="1" as="geometry" />
        </mxCell>
        <mxCell id="P-GLi1eiSQNG8AVTfN2y-48" style="edgeStyle=none;rounded=0;orthogonalLoop=1;jettySize=auto;html=1;exitX=0.5;exitY=1;exitDx=0;exitDy=0;exitPerimeter=0;entryX=0.12;entryY=0.1;entryDx=0;entryDy=0;entryPerimeter=0;endArrow=none;endFill=0;" parent="1" source="P-GLi1eiSQNG8AVTfN2y-31" target="P-GLi1eiSQNG8AVTfN2y-39" edge="1">
          <mxGeometry relative="1" as="geometry" />
        </mxCell>
        <mxCell id="P-GLi1eiSQNG8AVTfN2y-31" value="" style="shape=mxgraph.cisco.routers.router;sketch=0;html=1;pointerEvents=1;dashed=0;fillColor=#036897;strokeColor=#ffffff;strokeWidth=2;verticalLabelPosition=bottom;verticalAlign=top;align=center;outlineConnect=0;" parent="1" vertex="1">
          <mxGeometry x="610" y="1320" width="78" height="53" as="geometry" />
        </mxCell>
        <mxCell id="P-GLi1eiSQNG8AVTfN2y-52" style="edgeStyle=none;rounded=0;orthogonalLoop=1;jettySize=auto;html=1;exitX=0.12;exitY=0.1;exitDx=0;exitDy=0;exitPerimeter=0;entryX=0.88;entryY=0.9;entryDx=0;entryDy=0;entryPerimeter=0;endArrow=none;endFill=0;" parent="1" source="P-GLi1eiSQNG8AVTfN2y-32" target="P-GLi1eiSQNG8AVTfN2y-33" edge="1">
          <mxGeometry relative="1" as="geometry" />
        </mxCell>
        <mxCell id="P-GLi1eiSQNG8AVTfN2y-32" value="" style="shape=mxgraph.cisco.routers.router;sketch=0;html=1;pointerEvents=1;dashed=0;fillColor=#036897;strokeColor=#ffffff;strokeWidth=2;verticalLabelPosition=bottom;verticalAlign=top;align=center;outlineConnect=0;" parent="1" vertex="1">
          <mxGeometry x="336" y="1090" width="78" height="53" as="geometry" />
        </mxCell>
        <mxCell id="P-GLi1eiSQNG8AVTfN2y-33" value="" style="shape=mxgraph.cisco.routers.router;sketch=0;html=1;pointerEvents=1;dashed=0;fillColor=#036897;strokeColor=#ffffff;strokeWidth=2;verticalLabelPosition=bottom;verticalAlign=top;align=center;outlineConnect=0;" parent="1" vertex="1">
          <mxGeometry x="230" y="1010" width="78" height="53" as="geometry" />
        </mxCell>
        <mxCell id="P-GLi1eiSQNG8AVTfN2y-34" value="" style="shape=mxgraph.cisco.routers.router;sketch=0;html=1;pointerEvents=1;dashed=0;fillColor=#036897;strokeColor=#ffffff;strokeWidth=2;verticalLabelPosition=bottom;verticalAlign=top;align=center;outlineConnect=0;" parent="1" vertex="1">
          <mxGeometry x="804" y="1010" width="78" height="53" as="geometry" />
        </mxCell>
        <mxCell id="P-GLi1eiSQNG8AVTfN2y-50" style="edgeStyle=none;rounded=0;orthogonalLoop=1;jettySize=auto;html=1;exitX=0.88;exitY=0.1;exitDx=0;exitDy=0;exitPerimeter=0;entryX=0.12;entryY=0.9;entryDx=0;entryDy=0;entryPerimeter=0;endArrow=none;endFill=0;" parent="1" source="P-GLi1eiSQNG8AVTfN2y-35" target="P-GLi1eiSQNG8AVTfN2y-34" edge="1">
          <mxGeometry relative="1" as="geometry" />
        </mxCell>
        <mxCell id="P-GLi1eiSQNG8AVTfN2y-35" value="" style="shape=mxgraph.cisco.routers.router;sketch=0;html=1;pointerEvents=1;dashed=0;fillColor=#036897;strokeColor=#ffffff;strokeWidth=2;verticalLabelPosition=bottom;verticalAlign=top;align=center;outlineConnect=0;" parent="1" vertex="1">
          <mxGeometry x="694" y="1090" width="78" height="53" as="geometry" />
        </mxCell>
        <mxCell id="P-GLi1eiSQNG8AVTfN2y-36" value="" style="shape=mxgraph.cisco.routers.router;sketch=0;html=1;pointerEvents=1;dashed=0;fillColor=#036897;strokeColor=#ffffff;strokeWidth=2;verticalLabelPosition=bottom;verticalAlign=top;align=center;outlineConnect=0;" parent="1" vertex="1">
          <mxGeometry x="252" y="1460" width="78" height="53" as="geometry" />
        </mxCell>
        <mxCell id="P-GLi1eiSQNG8AVTfN2y-37" value="" style="shape=mxgraph.cisco.routers.router;sketch=0;html=1;pointerEvents=1;dashed=0;fillColor=#036897;strokeColor=#ffffff;strokeWidth=2;verticalLabelPosition=bottom;verticalAlign=top;align=center;outlineConnect=0;" parent="1" vertex="1">
          <mxGeometry x="433" y="1460" width="78" height="53" as="geometry" />
        </mxCell>
        <mxCell id="P-GLi1eiSQNG8AVTfN2y-38" value="" style="shape=mxgraph.cisco.routers.router;sketch=0;html=1;pointerEvents=1;dashed=0;fillColor=#036897;strokeColor=#ffffff;strokeWidth=2;verticalLabelPosition=bottom;verticalAlign=top;align=center;outlineConnect=0;" parent="1" vertex="1">
          <mxGeometry x="622" y="1460" width="78" height="53" as="geometry" />
        </mxCell>
        <mxCell id="P-GLi1eiSQNG8AVTfN2y-39" value="" style="shape=mxgraph.cisco.routers.router;sketch=0;html=1;pointerEvents=1;dashed=0;fillColor=#036897;strokeColor=#ffffff;strokeWidth=2;verticalLabelPosition=bottom;verticalAlign=top;align=center;outlineConnect=0;" parent="1" vertex="1">
          <mxGeometry x="803" y="1460" width="78" height="53" as="geometry" />
        </mxCell>
        <mxCell id="P-GLi1eiSQNG8AVTfN2y-59" value="area 0" style="text;html=1;strokeColor=none;fillColor=none;align=center;verticalAlign=middle;whiteSpace=wrap;rounded=0;" parent="1" vertex="1">
          <mxGeometry x="674" y="1265" width="60" height="30" as="geometry" />
        </mxCell>
        <mxCell id="P-GLi1eiSQNG8AVTfN2y-60" value="area 1" style="text;html=1;strokeColor=none;fillColor=none;align=center;verticalAlign=middle;whiteSpace=wrap;rounded=0;" parent="1" vertex="1">
          <mxGeometry x="410" y="1060" width="60" height="30" as="geometry" />
        </mxCell>
        <mxCell id="P-GLi1eiSQNG8AVTfN2y-61" value="area 2" style="text;html=1;strokeColor=none;fillColor=none;align=center;verticalAlign=middle;whiteSpace=wrap;rounded=0;" parent="1" vertex="1">
          <mxGeometry x="662" y="1060" width="60" height="30" as="geometry" />
        </mxCell>
        <mxCell id="P-GLi1eiSQNG8AVTfN2y-62" value="area 4" style="text;html=1;strokeColor=none;fillColor=none;align=center;verticalAlign=middle;whiteSpace=wrap;rounded=0;" parent="1" vertex="1">
          <mxGeometry x="717" y="1530" width="60" height="30" as="geometry" />
        </mxCell>
        <mxCell id="P-GLi1eiSQNG8AVTfN2y-63" value="area 3" style="text;html=1;strokeColor=none;fillColor=none;align=center;verticalAlign=middle;whiteSpace=wrap;rounded=0;" parent="1" vertex="1">
          <mxGeometry x="341" y="1530" width="60" height="30" as="geometry" />
        </mxCell>
        <mxCell id="Ej-1WiNll3kSdFZIMe57-12" style="edgeStyle=none;rounded=0;orthogonalLoop=1;jettySize=auto;html=1;exitX=0.5;exitY=1;exitDx=0;exitDy=0;exitPerimeter=0;entryX=0.4;entryY=0.1;entryDx=0;entryDy=0;entryPerimeter=0;endArrow=none;endFill=0;" parent="1" source="Ej-1WiNll3kSdFZIMe57-3" target="Ej-1WiNll3kSdFZIMe57-9" edge="1">
          <mxGeometry relative="1" as="geometry" />
        </mxCell>
        <mxCell id="Ej-1WiNll3kSdFZIMe57-3" value="" style="shape=mxgraph.cisco.servers.fileserver;sketch=0;html=1;pointerEvents=1;dashed=0;fillColor=#036897;strokeColor=#ffffff;strokeWidth=2;verticalLabelPosition=bottom;verticalAlign=top;align=center;outlineConnect=0;" parent="1" vertex="1">
          <mxGeometry x="1707.5" y="154" width="43" height="62" as="geometry" />
        </mxCell>
        <mxCell id="Ej-1WiNll3kSdFZIMe57-10" style="rounded=0;orthogonalLoop=1;jettySize=auto;html=1;exitX=0.5;exitY=1;exitDx=0;exitDy=0;exitPerimeter=0;entryX=0.4;entryY=0.1;entryDx=0;entryDy=0;entryPerimeter=0;endArrow=none;endFill=0;" parent="1" source="Ej-1WiNll3kSdFZIMe57-4" target="Ej-1WiNll3kSdFZIMe57-9" edge="1">
          <mxGeometry relative="1" as="geometry" />
        </mxCell>
        <mxCell id="Ej-1WiNll3kSdFZIMe57-4" value="" style="shape=mxgraph.cisco.routers.router;sketch=0;html=1;pointerEvents=1;dashed=0;fillColor=#036897;strokeColor=#ffffff;strokeWidth=2;verticalLabelPosition=bottom;verticalAlign=top;align=center;outlineConnect=0;" parent="1" vertex="1">
          <mxGeometry x="1310" y="163" width="78" height="53" as="geometry" />
        </mxCell>
        <mxCell id="Ej-1WiNll3kSdFZIMe57-14" style="edgeStyle=none;rounded=0;orthogonalLoop=1;jettySize=auto;html=1;exitX=0.5;exitY=0;exitDx=0;exitDy=0;exitPerimeter=0;strokeWidth=3;endArrow=none;endFill=0;" parent="1" source="Ej-1WiNll3kSdFZIMe57-5" edge="1">
          <mxGeometry relative="1" as="geometry">
            <mxPoint x="1389.4736842105262" y="330" as="targetPoint" />
          </mxGeometry>
        </mxCell>
        <mxCell id="Ej-1WiNll3kSdFZIMe57-5" value="" style="shape=mxgraph.cisco.routers.router;sketch=0;html=1;pointerEvents=1;dashed=0;fillColor=#036897;strokeColor=#ffffff;strokeWidth=2;verticalLabelPosition=bottom;verticalAlign=top;align=center;outlineConnect=0;" parent="1" vertex="1">
          <mxGeometry x="1350" y="430" width="78" height="53" as="geometry" />
        </mxCell>
        <mxCell id="Ej-1WiNll3kSdFZIMe57-15" style="edgeStyle=none;rounded=0;orthogonalLoop=1;jettySize=auto;html=1;exitX=0.5;exitY=0;exitDx=0;exitDy=0;exitPerimeter=0;entryX=0.408;entryY=0.813;entryDx=0;entryDy=0;entryPerimeter=0;strokeWidth=3;endArrow=none;endFill=0;" parent="1" source="Ej-1WiNll3kSdFZIMe57-6" target="Ej-1WiNll3kSdFZIMe57-9" edge="1">
          <mxGeometry relative="1" as="geometry" />
        </mxCell>
        <mxCell id="Ej-1WiNll3kSdFZIMe57-6" value="" style="shape=mxgraph.cisco.routers.router;sketch=0;html=1;pointerEvents=1;dashed=0;fillColor=#036897;strokeColor=#ffffff;strokeWidth=2;verticalLabelPosition=bottom;verticalAlign=top;align=center;outlineConnect=0;" parent="1" vertex="1">
          <mxGeometry x="1500" y="433.5" width="78" height="53" as="geometry" />
        </mxCell>
        <mxCell id="Ej-1WiNll3kSdFZIMe57-16" style="edgeStyle=none;rounded=0;orthogonalLoop=1;jettySize=auto;html=1;exitX=0.5;exitY=0;exitDx=0;exitDy=0;exitPerimeter=0;strokeWidth=3;endArrow=none;endFill=0;" parent="1" source="Ej-1WiNll3kSdFZIMe57-7" edge="1">
          <mxGeometry relative="1" as="geometry">
            <mxPoint x="1689.4736842105262" y="330" as="targetPoint" />
          </mxGeometry>
        </mxCell>
        <mxCell id="qUbvYGdircEgFiIyNOAi-2" style="edgeStyle=orthogonalEdgeStyle;rounded=0;orthogonalLoop=1;jettySize=auto;html=1;exitX=1;exitY=0.5;exitDx=0;exitDy=0;exitPerimeter=0;entryX=0.16;entryY=0.5;entryDx=0;entryDy=0;entryPerimeter=0;endArrow=none;endFill=0;" parent="1" source="Ej-1WiNll3kSdFZIMe57-7" target="qUbvYGdircEgFiIyNOAi-1" edge="1">
          <mxGeometry relative="1" as="geometry" />
        </mxCell>
        <mxCell id="Ej-1WiNll3kSdFZIMe57-7" value="" style="shape=mxgraph.cisco.routers.router;sketch=0;html=1;pointerEvents=1;dashed=0;fillColor=#036897;strokeColor=#ffffff;strokeWidth=2;verticalLabelPosition=bottom;verticalAlign=top;align=center;outlineConnect=0;" parent="1" vertex="1">
          <mxGeometry x="1650" y="430" width="78" height="53" as="geometry" />
        </mxCell>
        <mxCell id="Ej-1WiNll3kSdFZIMe57-11" style="edgeStyle=none;rounded=0;orthogonalLoop=1;jettySize=auto;html=1;exitX=0.5;exitY=1;exitDx=0;exitDy=0;exitPerimeter=0;entryX=0.4;entryY=0.1;entryDx=0;entryDy=0;entryPerimeter=0;endArrow=none;endFill=0;" parent="1" source="Ej-1WiNll3kSdFZIMe57-8" target="Ej-1WiNll3kSdFZIMe57-9" edge="1">
          <mxGeometry relative="1" as="geometry" />
        </mxCell>
        <mxCell id="Ej-1WiNll3kSdFZIMe57-8" value="" style="shape=mxgraph.cisco.computers_and_peripherals.pc;sketch=0;html=1;pointerEvents=1;dashed=0;fillColor=#036897;strokeColor=#ffffff;strokeWidth=2;verticalLabelPosition=bottom;verticalAlign=top;align=center;outlineConnect=0;" parent="1" vertex="1">
          <mxGeometry x="1500" y="150" width="78" height="70" as="geometry" />
        </mxCell>
        <mxCell id="Ej-1WiNll3kSdFZIMe57-9" value="IP Network" style="ellipse;shape=cloud;whiteSpace=wrap;html=1;fillColor=#bac8d3;strokeColor=#23445d;" parent="1" vertex="1">
          <mxGeometry x="1490" y="275" width="120" height="80" as="geometry" />
        </mxCell>
        <mxCell id="Ej-1WiNll3kSdFZIMe57-17" value="CPE" style="text;html=1;strokeColor=none;fillColor=none;align=center;verticalAlign=middle;whiteSpace=wrap;rounded=0;" parent="1" vertex="1">
          <mxGeometry x="1359" y="487" width="60" height="30" as="geometry" />
        </mxCell>
        <mxCell id="Ej-1WiNll3kSdFZIMe57-18" value="CPE" style="text;html=1;strokeColor=none;fillColor=none;align=center;verticalAlign=middle;whiteSpace=wrap;rounded=0;" parent="1" vertex="1">
          <mxGeometry x="1509" y="483" width="60" height="30" as="geometry" />
        </mxCell>
        <mxCell id="Ej-1WiNll3kSdFZIMe57-19" value="CPE" style="text;html=1;strokeColor=none;fillColor=none;align=center;verticalAlign=middle;whiteSpace=wrap;rounded=0;" parent="1" vertex="1">
          <mxGeometry x="1659" y="483" width="60" height="30" as="geometry" />
        </mxCell>
        <mxCell id="Ej-1WiNll3kSdFZIMe57-20" value="DNS Server" style="text;html=1;strokeColor=none;fillColor=none;align=center;verticalAlign=middle;whiteSpace=wrap;rounded=0;" parent="1" vertex="1">
          <mxGeometry x="1699" y="119" width="60" height="30" as="geometry" />
        </mxCell>
        <mxCell id="Ej-1WiNll3kSdFZIMe57-21" value="ACS" style="text;html=1;strokeColor=none;fillColor=none;align=center;verticalAlign=middle;whiteSpace=wrap;rounded=0;" parent="1" vertex="1">
          <mxGeometry x="1509" y="118" width="60" height="30" as="geometry" />
        </mxCell>
        <mxCell id="Ej-1WiNll3kSdFZIMe57-22" value="DHCP Server" style="text;html=1;strokeColor=none;fillColor=none;align=center;verticalAlign=middle;whiteSpace=wrap;rounded=0;" parent="1" vertex="1">
          <mxGeometry x="1319" y="130" width="60" height="30" as="geometry" />
        </mxCell>
        <mxCell id="qUbvYGdircEgFiIyNOAi-1" value="" style="shape=mxgraph.cisco.computers_and_peripherals.pc;sketch=0;html=1;pointerEvents=1;dashed=0;fillColor=#036897;strokeColor=#ffffff;strokeWidth=2;verticalLabelPosition=bottom;verticalAlign=top;align=center;outlineConnect=0;" parent="1" vertex="1">
          <mxGeometry x="1790" y="421.5" width="78" height="70" as="geometry" />
        </mxCell>
        <mxCell id="qUbvYGdircEgFiIyNOAi-3" value="web" style="text;html=1;strokeColor=none;fillColor=none;align=center;verticalAlign=middle;whiteSpace=wrap;rounded=0;" parent="1" vertex="1">
          <mxGeometry x="1799" y="384" width="60" height="30" as="geometry" />
        </mxCell>
        <mxCell id="EDbg9_VwvEkrpHxl1xz6-1" value="TR069" style="text;html=1;align=center;verticalAlign=middle;whiteSpace=wrap;rounded=0;fontColor=#FF3333;" parent="1" vertex="1">
          <mxGeometry x="1530" y="228" width="60" height="30" as="geometry" />
        </mxCell>
        <mxCell id="A8llaLLnAUJAQdBPhykW-1" value="" style="fontColor=#0066CC;verticalAlign=top;verticalLabelPosition=bottom;labelPosition=center;align=center;html=1;outlineConnect=0;fillColor=#CCCCCC;strokeColor=#6881B3;gradientColor=none;gradientDirection=north;strokeWidth=2;shape=mxgraph.networks.pc;" vertex="1" parent="1">
          <mxGeometry x="1360" y="970" width="100" height="70" as="geometry" />
        </mxCell>
        <mxCell id="A8llaLLnAUJAQdBPhykW-2" value="" style="fontColor=#0066CC;verticalAlign=top;verticalLabelPosition=bottom;labelPosition=center;align=center;html=1;outlineConnect=0;fillColor=#CCCCCC;strokeColor=#6881B3;gradientColor=none;gradientDirection=north;strokeWidth=2;shape=mxgraph.networks.laptop;" vertex="1" parent="1">
          <mxGeometry x="1830" y="978" width="100" height="55" as="geometry" />
        </mxCell>
        <mxCell id="A8llaLLnAUJAQdBPhykW-3" value="" style="fontColor=#0066CC;verticalAlign=top;verticalLabelPosition=bottom;labelPosition=center;align=center;html=1;outlineConnect=0;fillColor=#CCCCCC;strokeColor=#6881B3;gradientColor=none;gradientDirection=north;strokeWidth=2;shape=mxgraph.networks.switch;" vertex="1" parent="1">
          <mxGeometry x="1590" y="1210" width="100" height="30" as="geometry" />
        </mxCell>
        <mxCell id="A8llaLLnAUJAQdBPhykW-4" value="X86_64 PC" style="text;html=1;align=center;verticalAlign=middle;whiteSpace=wrap;rounded=0;" vertex="1" parent="1">
          <mxGeometry x="1370" y="1050" width="100" height="30" as="geometry" />
        </mxCell>
        <mxCell id="A8llaLLnAUJAQdBPhykW-5" style="edgeStyle=orthogonalEdgeStyle;rounded=0;orthogonalLoop=1;jettySize=auto;html=1;exitX=0;exitY=0.5;exitDx=0;exitDy=0;exitPerimeter=0;entryX=0;entryY=0.5;entryDx=0;entryDy=0;entryPerimeter=0;startArrow=classic;startFill=1;" edge="1" parent="1" source="A8llaLLnAUJAQdBPhykW-3" target="A8llaLLnAUJAQdBPhykW-1">
          <mxGeometry relative="1" as="geometry" />
        </mxCell>
        <mxCell id="A8llaLLnAUJAQdBPhykW-6" value="Serial" style="edgeLabel;html=1;align=center;verticalAlign=middle;resizable=0;points=[];" vertex="1" connectable="0" parent="A8llaLLnAUJAQdBPhykW-5">
          <mxGeometry x="-0.2354" y="-1" relative="1" as="geometry">
            <mxPoint x="17" y="1" as="offset" />
          </mxGeometry>
        </mxCell>
        <mxCell id="A8llaLLnAUJAQdBPhykW-7" style="edgeStyle=orthogonalEdgeStyle;rounded=0;orthogonalLoop=1;jettySize=auto;html=1;exitX=1;exitY=0.5;exitDx=0;exitDy=0;exitPerimeter=0;entryX=0.15;entryY=0.5;entryDx=0;entryDy=0;entryPerimeter=0;startArrow=classic;startFill=1;" edge="1" parent="1" source="A8llaLLnAUJAQdBPhykW-1" target="A8llaLLnAUJAQdBPhykW-2">
          <mxGeometry relative="1" as="geometry" />
        </mxCell>
        <mxCell id="A8llaLLnAUJAQdBPhykW-8" value="Network" style="edgeLabel;html=1;align=center;verticalAlign=middle;resizable=0;points=[];" vertex="1" connectable="0" parent="A8llaLLnAUJAQdBPhykW-7">
          <mxGeometry x="-0.0402" y="2" relative="1" as="geometry">
            <mxPoint x="-9" y="-2" as="offset" />
          </mxGeometry>
        </mxCell>
        <mxCell id="A8llaLLnAUJAQdBPhykW-9" value="RaspBreey Pi" style="text;html=1;align=center;verticalAlign=middle;whiteSpace=wrap;rounded=0;" vertex="1" parent="1">
          <mxGeometry x="1600" y="1250" width="80" height="30" as="geometry" />
        </mxCell>
        <mxCell id="A8llaLLnAUJAQdBPhykW-10" value="Mac" style="text;html=1;align=center;verticalAlign=middle;whiteSpace=wrap;rounded=0;" vertex="1" parent="1">
          <mxGeometry x="1850" y="1040" width="60" height="30" as="geometry" />
        </mxCell>
      </root>
    </mxGraphModel>
  </diagram>
  <diagram id="R7yO9QersEXo60gfPtyk" name="topo2">
    <mxGraphModel dx="1406" dy="826" grid="1" gridSize="10" guides="1" tooltips="1" connect="1" arrows="1" fold="1" page="1" pageScale="1" pageWidth="1169" pageHeight="827" math="0" shadow="0">
      <root>
        <mxCell id="0" />
        <mxCell id="1" parent="0" />
        <mxCell id="LOZEwGY1NGtDw2J4BBZT-1" style="edgeStyle=orthogonalEdgeStyle;rounded=0;orthogonalLoop=1;jettySize=auto;html=1;exitX=1;exitY=0.5;exitDx=0;exitDy=0;entryX=0;entryY=0.5;entryDx=0;entryDy=0;endArrow=none;endFill=0;" parent="1" source="LOZEwGY1NGtDw2J4BBZT-4" target="LOZEwGY1NGtDw2J4BBZT-7" edge="1">
          <mxGeometry relative="1" as="geometry" />
        </mxCell>
        <mxCell id="LOZEwGY1NGtDw2J4BBZT-2" style="edgeStyle=orthogonalEdgeStyle;rounded=0;orthogonalLoop=1;jettySize=auto;html=1;exitX=0;exitY=1;exitDx=0;exitDy=0;entryX=1;entryY=0.5;entryDx=0;entryDy=0;endArrow=none;endFill=0;" parent="1" source="LOZEwGY1NGtDw2J4BBZT-4" target="LOZEwGY1NGtDw2J4BBZT-15" edge="1">
          <mxGeometry relative="1" as="geometry" />
        </mxCell>
        <mxCell id="LOZEwGY1NGtDw2J4BBZT-3" style="edgeStyle=orthogonalEdgeStyle;rounded=0;orthogonalLoop=1;jettySize=auto;html=1;exitX=0;exitY=0;exitDx=0;exitDy=0;entryX=1;entryY=0.5;entryDx=0;entryDy=0;endArrow=none;endFill=0;" parent="1" source="LOZEwGY1NGtDw2J4BBZT-4" target="LOZEwGY1NGtDw2J4BBZT-8" edge="1">
          <mxGeometry relative="1" as="geometry" />
        </mxCell>
        <mxCell id="LOZEwGY1NGtDw2J4BBZT-4" value="127" style="rounded=1;whiteSpace=wrap;html=1;" parent="1" vertex="1">
          <mxGeometry x="400" y="815" width="120" height="60" as="geometry" />
        </mxCell>
        <mxCell id="LOZEwGY1NGtDw2J4BBZT-5" style="edgeStyle=orthogonalEdgeStyle;rounded=0;orthogonalLoop=1;jettySize=auto;html=1;exitX=1;exitY=0;exitDx=0;exitDy=0;entryX=0;entryY=0.5;entryDx=0;entryDy=0;endArrow=none;endFill=0;" parent="1" source="LOZEwGY1NGtDw2J4BBZT-7" target="LOZEwGY1NGtDw2J4BBZT-17" edge="1">
          <mxGeometry relative="1" as="geometry" />
        </mxCell>
        <mxCell id="LOZEwGY1NGtDw2J4BBZT-6" style="edgeStyle=orthogonalEdgeStyle;rounded=0;orthogonalLoop=1;jettySize=auto;html=1;exitX=1;exitY=1;exitDx=0;exitDy=0;entryX=0;entryY=0.5;entryDx=0;entryDy=0;endArrow=none;endFill=0;" parent="1" source="LOZEwGY1NGtDw2J4BBZT-7" target="LOZEwGY1NGtDw2J4BBZT-18" edge="1">
          <mxGeometry relative="1" as="geometry" />
        </mxCell>
        <mxCell id="LOZEwGY1NGtDw2J4BBZT-7" value="129" style="rounded=1;whiteSpace=wrap;html=1;" parent="1" vertex="1">
          <mxGeometry x="640" y="815" width="120" height="60" as="geometry" />
        </mxCell>
        <mxCell id="LOZEwGY1NGtDw2J4BBZT-8" value="TC 2/1" style="ellipse;whiteSpace=wrap;html=1;" parent="1" vertex="1">
          <mxGeometry x="160" y="695" width="120" height="80" as="geometry" />
        </mxCell>
        <mxCell id="LOZEwGY1NGtDw2J4BBZT-9" value="vlan 1000&lt;br&gt;40.1.0.0/16" style="text;html=1;strokeColor=none;fillColor=none;align=center;verticalAlign=middle;whiteSpace=wrap;rounded=0;" parent="1" vertex="1">
          <mxGeometry x="550" y="805" width="60" height="30" as="geometry" />
        </mxCell>
        <mxCell id="LOZEwGY1NGtDw2J4BBZT-10" value="vlan 3666&lt;br&gt;50.1.0.0/16" style="text;html=1;strokeColor=none;fillColor=none;align=center;verticalAlign=middle;whiteSpace=wrap;rounded=0;" parent="1" vertex="1">
          <mxGeometry x="800" y="705" width="60" height="30" as="geometry" />
        </mxCell>
        <mxCell id="LOZEwGY1NGtDw2J4BBZT-11" value="vlan 2048&lt;br&gt;60.1.0.0/16" style="text;html=1;strokeColor=none;fillColor=none;align=center;verticalAlign=middle;whiteSpace=wrap;rounded=0;" parent="1" vertex="1">
          <mxGeometry x="810" y="915" width="60" height="30" as="geometry" />
        </mxCell>
        <mxCell id="LOZEwGY1NGtDw2J4BBZT-12" value="vlan 2&lt;br&gt;20.1.0.0/16" style="text;html=1;strokeColor=none;fillColor=none;align=center;verticalAlign=middle;whiteSpace=wrap;rounded=0;" parent="1" vertex="1">
          <mxGeometry x="310" y="695" width="60" height="30" as="geometry" />
        </mxCell>
        <mxCell id="LOZEwGY1NGtDw2J4BBZT-13" value="vlan 4094&lt;br&gt;30.1.0.0/16" style="text;html=1;strokeColor=none;fillColor=none;align=center;verticalAlign=middle;whiteSpace=wrap;rounded=0;" parent="1" vertex="1">
          <mxGeometry x="310" y="915" width="60" height="30" as="geometry" />
        </mxCell>
        <mxCell id="LOZEwGY1NGtDw2J4BBZT-14" value="port48" style="text;html=1;strokeColor=none;fillColor=none;align=center;verticalAlign=middle;whiteSpace=wrap;rounded=0;" parent="1" vertex="1">
          <mxGeometry x="400" y="875" width="60" height="30" as="geometry" />
        </mxCell>
        <mxCell id="LOZEwGY1NGtDw2J4BBZT-15" value="TC 4/15" style="ellipse;whiteSpace=wrap;html=1;" parent="1" vertex="1">
          <mxGeometry x="160" y="915" width="120" height="80" as="geometry" />
        </mxCell>
        <mxCell id="LOZEwGY1NGtDw2J4BBZT-16" value="port55" style="text;html=1;strokeColor=none;fillColor=none;align=center;verticalAlign=middle;whiteSpace=wrap;rounded=0;" parent="1" vertex="1">
          <mxGeometry x="400" y="785" width="60" height="30" as="geometry" />
        </mxCell>
        <mxCell id="LOZEwGY1NGtDw2J4BBZT-17" value="TC 2/2" style="ellipse;whiteSpace=wrap;html=1;" parent="1" vertex="1">
          <mxGeometry x="890" y="695" width="120" height="80" as="geometry" />
        </mxCell>
        <mxCell id="LOZEwGY1NGtDw2J4BBZT-18" value="TC 4/16" style="ellipse;whiteSpace=wrap;html=1;" parent="1" vertex="1">
          <mxGeometry x="890" y="915" width="120" height="80" as="geometry" />
        </mxCell>
        <mxCell id="LOZEwGY1NGtDw2J4BBZT-19" value="port55" style="text;html=1;strokeColor=none;fillColor=none;align=center;verticalAlign=middle;whiteSpace=wrap;rounded=0;" parent="1" vertex="1">
          <mxGeometry x="700" y="785" width="60" height="30" as="geometry" />
        </mxCell>
        <mxCell id="LOZEwGY1NGtDw2J4BBZT-20" value="port25" style="text;html=1;strokeColor=none;fillColor=none;align=center;verticalAlign=middle;whiteSpace=wrap;rounded=0;" parent="1" vertex="1">
          <mxGeometry x="700" y="875" width="60" height="30" as="geometry" />
        </mxCell>
        <mxCell id="LOZEwGY1NGtDw2J4BBZT-21" value="" style="ellipse;whiteSpace=wrap;html=1;fillColor=none;strokeColor=#6c8ebf;" parent="1" vertex="1">
          <mxGeometry x="90" y="660" width="350" height="370" as="geometry" />
        </mxCell>
        <mxCell id="LOZEwGY1NGtDw2J4BBZT-22" value="" style="ellipse;whiteSpace=wrap;html=1;fillColor=none;strokeColor=#33FFFF;" parent="1" vertex="1">
          <mxGeometry x="720" y="660" width="390" height="370" as="geometry" />
        </mxCell>
        <mxCell id="LOZEwGY1NGtDw2J4BBZT-23" value="" style="ellipse;whiteSpace=wrap;html=1;fillColor=none;strokeColor=#FFD966;" parent="1" vertex="1">
          <mxGeometry x="480" y="660" width="200" height="370" as="geometry" />
        </mxCell>
        <mxCell id="LOZEwGY1NGtDw2J4BBZT-24" value="AREA 1" style="text;html=1;strokeColor=none;fillColor=none;align=center;verticalAlign=middle;whiteSpace=wrap;rounded=0;fontColor=#007FFF;" parent="1" vertex="1">
          <mxGeometry x="274" y="630" width="60" height="30" as="geometry" />
        </mxCell>
        <mxCell id="LOZEwGY1NGtDw2J4BBZT-25" value="AREA 0" style="text;html=1;strokeColor=none;fillColor=none;align=center;verticalAlign=middle;whiteSpace=wrap;rounded=0;fontColor=#FFD966;" parent="1" vertex="1">
          <mxGeometry x="550" y="630" width="60" height="30" as="geometry" />
        </mxCell>
        <mxCell id="LOZEwGY1NGtDw2J4BBZT-26" value="AREA 2" style="text;html=1;strokeColor=none;fillColor=none;align=center;verticalAlign=middle;whiteSpace=wrap;rounded=0;fontColor=#00FFFF;" parent="1" vertex="1">
          <mxGeometry x="835" y="630" width="60" height="30" as="geometry" />
        </mxCell>
        <mxCell id="LOZEwGY1NGtDw2J4BBZT-27" value="1.1.1.1" style="text;html=1;strokeColor=none;fillColor=none;align=center;verticalAlign=middle;whiteSpace=wrap;rounded=0;fontColor=#FF0000;" parent="1" vertex="1">
          <mxGeometry x="460" y="785" width="60" height="30" as="geometry" />
        </mxCell>
        <mxCell id="LOZEwGY1NGtDw2J4BBZT-28" value="2.2.2.2" style="text;html=1;strokeColor=none;fillColor=none;align=center;verticalAlign=middle;whiteSpace=wrap;rounded=0;fontColor=#FF0000;" parent="1" vertex="1">
          <mxGeometry x="650" y="785" width="60" height="30" as="geometry" />
        </mxCell>
        <mxCell id="LOZEwGY1NGtDw2J4BBZT-29" value="3.3.3.3" style="text;html=1;strokeColor=none;fillColor=none;align=center;verticalAlign=middle;whiteSpace=wrap;rounded=0;fontColor=#FF0000;" parent="1" vertex="1">
          <mxGeometry x="190" y="665" width="60" height="30" as="geometry" />
        </mxCell>
        <mxCell id="LOZEwGY1NGtDw2J4BBZT-30" value="4.4.4.4" style="text;html=1;strokeColor=none;fillColor=none;align=center;verticalAlign=middle;whiteSpace=wrap;rounded=0;fontColor=#FF0000;" parent="1" vertex="1">
          <mxGeometry x="920" y="665" width="60" height="30" as="geometry" />
        </mxCell>
        <mxCell id="LOZEwGY1NGtDw2J4BBZT-31" value="5.5.5.5" style="text;html=1;strokeColor=none;fillColor=none;align=center;verticalAlign=middle;whiteSpace=wrap;rounded=0;fontColor=#FF0000;" parent="1" vertex="1">
          <mxGeometry x="190" y="995" width="60" height="30" as="geometry" />
        </mxCell>
        <mxCell id="LOZEwGY1NGtDw2J4BBZT-32" value="6.6.6.6" style="text;html=1;strokeColor=none;fillColor=none;align=center;verticalAlign=middle;whiteSpace=wrap;rounded=0;fontColor=#FF0000;" parent="1" vertex="1">
          <mxGeometry x="920" y="995" width="60" height="30" as="geometry" />
        </mxCell>
      </root>
    </mxGraphModel>
  </diagram>
  <diagram id="0aNErLHwkeeeqMvZuP8x" name="spf_calc">
    <mxGraphModel dx="2812" dy="-2" grid="1" gridSize="10" guides="1" tooltips="1" connect="1" arrows="1" fold="1" page="1" pageScale="1" pageWidth="1169" pageHeight="827" math="0" shadow="0">
      <root>
        <mxCell id="0" />
        <mxCell id="1" parent="0" />
        <mxCell id="_9Zh-veKlT0zyMxW7Ku9-1" style="edgeStyle=orthogonalEdgeStyle;rounded=0;orthogonalLoop=1;jettySize=auto;html=1;exitX=1;exitY=0.5;exitDx=0;exitDy=0;exitPerimeter=0;entryX=0;entryY=0.5;entryDx=0;entryDy=0;entryPerimeter=0;endArrow=none;endFill=0;" parent="1" source="_9Zh-veKlT0zyMxW7Ku9-2" target="_9Zh-veKlT0zyMxW7Ku9-5" edge="1">
          <mxGeometry relative="1" as="geometry" />
        </mxCell>
        <mxCell id="_9Zh-veKlT0zyMxW7Ku9-2" value="" style="shape=mxgraph.cisco.routers.router;sketch=0;html=1;pointerEvents=1;dashed=0;fillColor=#036897;strokeColor=#ffffff;strokeWidth=2;verticalLabelPosition=bottom;verticalAlign=top;align=center;outlineConnect=0;" parent="1" vertex="1">
          <mxGeometry x="271" y="2010" width="78" height="53" as="geometry" />
        </mxCell>
        <mxCell id="_9Zh-veKlT0zyMxW7Ku9-3" style="edgeStyle=orthogonalEdgeStyle;rounded=0;orthogonalLoop=1;jettySize=auto;html=1;exitX=0.5;exitY=1;exitDx=0;exitDy=0;exitPerimeter=0;entryX=0.5;entryY=0;entryDx=0;entryDy=0;entryPerimeter=0;endArrow=none;endFill=0;" parent="1" source="_9Zh-veKlT0zyMxW7Ku9-5" target="_9Zh-veKlT0zyMxW7Ku9-6" edge="1">
          <mxGeometry relative="1" as="geometry" />
        </mxCell>
        <mxCell id="_9Zh-veKlT0zyMxW7Ku9-4" style="rounded=0;orthogonalLoop=1;jettySize=auto;html=1;exitX=1;exitY=0.5;exitDx=0;exitDy=0;exitPerimeter=0;entryX=0;entryY=0.5;entryDx=0;entryDy=0;entryPerimeter=0;endArrow=none;endFill=0;" parent="1" source="_9Zh-veKlT0zyMxW7Ku9-5" target="_9Zh-veKlT0zyMxW7Ku9-9" edge="1">
          <mxGeometry relative="1" as="geometry" />
        </mxCell>
        <mxCell id="_9Zh-veKlT0zyMxW7Ku9-5" value="" style="shape=mxgraph.cisco.routers.router;sketch=0;html=1;pointerEvents=1;dashed=0;fillColor=#036897;strokeColor=#ffffff;strokeWidth=2;verticalLabelPosition=bottom;verticalAlign=top;align=center;outlineConnect=0;" parent="1" vertex="1">
          <mxGeometry x="475" y="2010" width="78" height="53" as="geometry" />
        </mxCell>
        <mxCell id="_9Zh-veKlT0zyMxW7Ku9-6" value="" style="shape=mxgraph.cisco.routers.router;sketch=0;html=1;pointerEvents=1;dashed=0;fillColor=#036897;strokeColor=#ffffff;strokeWidth=2;verticalLabelPosition=bottom;verticalAlign=top;align=center;outlineConnect=0;" parent="1" vertex="1">
          <mxGeometry x="475" y="2230" width="78" height="53" as="geometry" />
        </mxCell>
        <mxCell id="_9Zh-veKlT0zyMxW7Ku9-7" style="edgeStyle=none;rounded=0;orthogonalLoop=1;jettySize=auto;html=1;exitX=0;exitY=0.5;exitDx=0;exitDy=0;exitPerimeter=0;entryX=1;entryY=0.5;entryDx=0;entryDy=0;entryPerimeter=0;endArrow=none;endFill=0;" parent="1" source="_9Zh-veKlT0zyMxW7Ku9-8" target="_9Zh-veKlT0zyMxW7Ku9-5" edge="1">
          <mxGeometry relative="1" as="geometry" />
        </mxCell>
        <mxCell id="_9Zh-veKlT0zyMxW7Ku9-8" value="" style="shape=mxgraph.cisco.routers.router;sketch=0;html=1;pointerEvents=1;dashed=0;fillColor=#036897;strokeColor=#ffffff;strokeWidth=2;verticalLabelPosition=bottom;verticalAlign=top;align=center;outlineConnect=0;" parent="1" vertex="1">
          <mxGeometry x="708" y="2100" width="78" height="53" as="geometry" />
        </mxCell>
        <mxCell id="_9Zh-veKlT0zyMxW7Ku9-9" value="" style="shape=mxgraph.cisco.routers.router;sketch=0;html=1;pointerEvents=1;dashed=0;fillColor=#036897;strokeColor=#ffffff;strokeWidth=2;verticalLabelPosition=bottom;verticalAlign=top;align=center;outlineConnect=0;" parent="1" vertex="1">
          <mxGeometry x="700" y="1910" width="78" height="53" as="geometry" />
        </mxCell>
        <mxCell id="_9Zh-veKlT0zyMxW7Ku9-10" value="Route B&lt;br&gt;2.2.2.2/32" style="text;html=1;strokeColor=none;fillColor=none;align=center;verticalAlign=middle;whiteSpace=wrap;rounded=0;" parent="1" vertex="1">
          <mxGeometry x="280" y="1980" width="60" height="30" as="geometry" />
        </mxCell>
        <mxCell id="_9Zh-veKlT0zyMxW7Ku9-11" value="Route A&lt;br&gt;1.1.1.1/32" style="text;html=1;strokeColor=none;fillColor=none;align=center;verticalAlign=middle;whiteSpace=wrap;rounded=0;" parent="1" vertex="1">
          <mxGeometry x="484" y="1980" width="60" height="30" as="geometry" />
        </mxCell>
        <mxCell id="_9Zh-veKlT0zyMxW7Ku9-12" value="Route C&lt;br&gt;3.3.3.3/32" style="text;html=1;strokeColor=none;fillColor=none;align=center;verticalAlign=middle;whiteSpace=wrap;rounded=0;" parent="1" vertex="1">
          <mxGeometry x="484" y="2283" width="60" height="30" as="geometry" />
        </mxCell>
        <mxCell id="_9Zh-veKlT0zyMxW7Ku9-13" value="Route D&lt;br&gt;4.4.4.4/32" style="text;html=1;strokeColor=none;fillColor=none;align=center;verticalAlign=middle;whiteSpace=wrap;rounded=0;" parent="1" vertex="1">
          <mxGeometry x="778" y="1921.5" width="60" height="30" as="geometry" />
        </mxCell>
        <mxCell id="_9Zh-veKlT0zyMxW7Ku9-14" value="Route E&lt;br&gt;5.5..5.5/32" style="text;html=1;strokeColor=none;fillColor=none;align=center;verticalAlign=middle;whiteSpace=wrap;rounded=0;" parent="1" vertex="1">
          <mxGeometry x="784" y="2111.5" width="60" height="30" as="geometry" />
        </mxCell>
        <mxCell id="_9Zh-veKlT0zyMxW7Ku9-15" value="10.1.1.0/24" style="text;html=1;strokeColor=#6c8ebf;fillColor=#dae8fc;align=center;verticalAlign=middle;whiteSpace=wrap;rounded=0;" parent="1" vertex="1">
          <mxGeometry x="380" y="2000" width="60" height="30" as="geometry" />
        </mxCell>
        <mxCell id="_9Zh-veKlT0zyMxW7Ku9-16" value="10.1.2.0/24" style="text;html=1;strokeColor=#6c8ebf;fillColor=#dae8fc;align=center;verticalAlign=middle;whiteSpace=wrap;rounded=0;" parent="1" vertex="1">
          <mxGeometry x="448" y="2130" width="60" height="30" as="geometry" />
        </mxCell>
        <mxCell id="_9Zh-veKlT0zyMxW7Ku9-17" value="10.1.3.0/24" style="text;html=1;strokeColor=#6c8ebf;fillColor=#dae8fc;align=center;verticalAlign=middle;whiteSpace=wrap;rounded=0;" parent="1" vertex="1">
          <mxGeometry x="585" y="2090" width="60" height="30" as="geometry" />
        </mxCell>
        <mxCell id="_9Zh-veKlT0zyMxW7Ku9-18" value="10.1.3.0/24" style="text;html=1;strokeColor=#6c8ebf;fillColor=#dae8fc;align=center;verticalAlign=middle;whiteSpace=wrap;rounded=0;" parent="1" vertex="1">
          <mxGeometry x="570" y="1960" width="60" height="30" as="geometry" />
        </mxCell>
        <mxCell id="L0u9rooXJ6g8XEg4yprI-29" style="edgeStyle=none;rounded=0;orthogonalLoop=1;jettySize=auto;html=1;exitX=1;exitY=0.5;exitDx=0;exitDy=0;exitPerimeter=0;entryX=0;entryY=0.5;entryDx=0;entryDy=0;entryPerimeter=0;endArrow=none;endFill=0;" parent="1" source="L0u9rooXJ6g8XEg4yprI-2" target="L0u9rooXJ6g8XEg4yprI-22" edge="1">
          <mxGeometry relative="1" as="geometry" />
        </mxCell>
        <mxCell id="L0u9rooXJ6g8XEg4yprI-2" value="" style="shape=mxgraph.cisco.routers.router;sketch=0;html=1;pointerEvents=1;dashed=0;fillColor=#036897;strokeColor=#ffffff;strokeWidth=2;verticalLabelPosition=bottom;verticalAlign=top;align=center;outlineConnect=0;" parent="1" vertex="1">
          <mxGeometry x="140" y="2523.5" width="78" height="53" as="geometry" />
        </mxCell>
        <mxCell id="L0u9rooXJ6g8XEg4yprI-20" value="" style="edgeStyle=none;rounded=0;orthogonalLoop=1;jettySize=auto;html=1;exitX=1;exitY=0.5;exitDx=0;exitDy=0;exitPerimeter=0;entryX=0;entryY=0;entryDx=0;entryDy=37.5;entryPerimeter=0;endArrow=none;endFill=0;" parent="1" source="L0u9rooXJ6g8XEg4yprI-5" target="L0u9rooXJ6g8XEg4yprI-19" edge="1">
          <mxGeometry relative="1" as="geometry" />
        </mxCell>
        <mxCell id="L0u9rooXJ6g8XEg4yprI-23" value="" style="edgeStyle=none;rounded=0;orthogonalLoop=1;jettySize=auto;html=1;exitX=0;exitY=0.5;exitDx=0;exitDy=0;exitPerimeter=0;entryX=1;entryY=0;entryDx=0;entryDy=35.25;entryPerimeter=0;endArrow=none;endFill=0;" parent="1" source="L0u9rooXJ6g8XEg4yprI-5" target="L0u9rooXJ6g8XEg4yprI-22" edge="1">
          <mxGeometry relative="1" as="geometry" />
        </mxCell>
        <mxCell id="L0u9rooXJ6g8XEg4yprI-25" style="edgeStyle=none;rounded=0;orthogonalLoop=1;jettySize=auto;html=1;exitX=0.5;exitY=1;exitDx=0;exitDy=0;exitPerimeter=0;endArrow=none;endFill=0;" parent="1" source="L0u9rooXJ6g8XEg4yprI-5" target="L0u9rooXJ6g8XEg4yprI-24" edge="1">
          <mxGeometry relative="1" as="geometry" />
        </mxCell>
        <mxCell id="L0u9rooXJ6g8XEg4yprI-5" value="" style="shape=mxgraph.cisco.routers.router;sketch=0;html=1;pointerEvents=1;dashed=0;fillColor=#036897;strokeColor=#ffffff;strokeWidth=2;verticalLabelPosition=bottom;verticalAlign=top;align=center;outlineConnect=0;" parent="1" vertex="1">
          <mxGeometry x="529" y="2530.5" width="78" height="53" as="geometry" />
        </mxCell>
        <mxCell id="L0u9rooXJ6g8XEg4yprI-36" style="edgeStyle=none;rounded=0;orthogonalLoop=1;jettySize=auto;html=1;exitX=0.5;exitY=0;exitDx=0;exitDy=0;exitPerimeter=0;entryX=0.5;entryY=1;entryDx=0;entryDy=0;entryPerimeter=0;endArrow=none;endFill=0;" parent="1" source="L0u9rooXJ6g8XEg4yprI-6" target="L0u9rooXJ6g8XEg4yprI-24" edge="1">
          <mxGeometry relative="1" as="geometry" />
        </mxCell>
        <mxCell id="L0u9rooXJ6g8XEg4yprI-6" value="" style="shape=mxgraph.cisco.routers.router;sketch=0;html=1;pointerEvents=1;dashed=0;fillColor=#036897;strokeColor=#ffffff;strokeWidth=2;verticalLabelPosition=bottom;verticalAlign=top;align=center;outlineConnect=0;" parent="1" vertex="1">
          <mxGeometry x="529" y="2840.5" width="78" height="53" as="geometry" />
        </mxCell>
        <mxCell id="L0u9rooXJ6g8XEg4yprI-39" style="edgeStyle=none;rounded=0;orthogonalLoop=1;jettySize=auto;html=1;exitX=0;exitY=0.5;exitDx=0;exitDy=0;exitPerimeter=0;entryX=1;entryY=0.5;entryDx=0;entryDy=0;entryPerimeter=0;endArrow=none;endFill=0;" parent="1" source="L0u9rooXJ6g8XEg4yprI-8" target="L0u9rooXJ6g8XEg4yprI-19" edge="1">
          <mxGeometry relative="1" as="geometry" />
        </mxCell>
        <mxCell id="L0u9rooXJ6g8XEg4yprI-8" value="" style="shape=mxgraph.cisco.routers.router;sketch=0;html=1;pointerEvents=1;dashed=0;fillColor=#036897;strokeColor=#ffffff;strokeWidth=2;verticalLabelPosition=bottom;verticalAlign=top;align=center;outlineConnect=0;" parent="1" vertex="1">
          <mxGeometry x="929" y="2610" width="78" height="53" as="geometry" />
        </mxCell>
        <mxCell id="L0u9rooXJ6g8XEg4yprI-38" style="edgeStyle=none;rounded=0;orthogonalLoop=1;jettySize=auto;html=1;exitX=0;exitY=0.5;exitDx=0;exitDy=0;exitPerimeter=0;entryX=1;entryY=0.5;entryDx=0;entryDy=0;entryPerimeter=0;endArrow=none;endFill=0;" parent="1" source="L0u9rooXJ6g8XEg4yprI-9" target="L0u9rooXJ6g8XEg4yprI-19" edge="1">
          <mxGeometry relative="1" as="geometry" />
        </mxCell>
        <mxCell id="L0u9rooXJ6g8XEg4yprI-9" value="" style="shape=mxgraph.cisco.routers.router;sketch=0;html=1;pointerEvents=1;dashed=0;fillColor=#036897;strokeColor=#ffffff;strokeWidth=2;verticalLabelPosition=bottom;verticalAlign=top;align=center;outlineConnect=0;" parent="1" vertex="1">
          <mxGeometry x="921" y="2420" width="78" height="53" as="geometry" />
        </mxCell>
        <mxCell id="L0u9rooXJ6g8XEg4yprI-10" value="Route B&lt;br&gt;2.2.2.2/32" style="text;html=1;strokeColor=none;fillColor=none;align=center;verticalAlign=middle;whiteSpace=wrap;rounded=0;" parent="1" vertex="1">
          <mxGeometry x="99" y="2483.5" width="60" height="30" as="geometry" />
        </mxCell>
        <mxCell id="L0u9rooXJ6g8XEg4yprI-11" value="Route A&lt;br&gt;1.1.1.1" style="text;html=1;strokeColor=none;fillColor=none;align=center;verticalAlign=middle;whiteSpace=wrap;rounded=0;" parent="1" vertex="1">
          <mxGeometry x="538" y="2500.5" width="60" height="30" as="geometry" />
        </mxCell>
        <mxCell id="L0u9rooXJ6g8XEg4yprI-12" value="Route C&lt;br&gt;3.3.3.3/32" style="text;html=1;strokeColor=none;fillColor=none;align=center;verticalAlign=middle;whiteSpace=wrap;rounded=0;" parent="1" vertex="1">
          <mxGeometry x="538" y="2903.5" width="60" height="30" as="geometry" />
        </mxCell>
        <mxCell id="L0u9rooXJ6g8XEg4yprI-13" value="Route D&lt;br&gt;4.4.4.4/32" style="text;html=1;strokeColor=none;fillColor=none;align=center;verticalAlign=middle;whiteSpace=wrap;rounded=0;" parent="1" vertex="1">
          <mxGeometry x="999" y="2431.5" width="60" height="30" as="geometry" />
        </mxCell>
        <mxCell id="L0u9rooXJ6g8XEg4yprI-14" value="Route E&lt;br&gt;5.5..5.5/32" style="text;html=1;strokeColor=none;fillColor=none;align=center;verticalAlign=middle;whiteSpace=wrap;rounded=0;" parent="1" vertex="1">
          <mxGeometry x="1005" y="2621.5" width="60" height="30" as="geometry" />
        </mxCell>
        <mxCell id="L0u9rooXJ6g8XEg4yprI-19" value="" style="shape=cylinder3;whiteSpace=wrap;html=1;boundedLbl=1;backgroundOutline=1;size=15;" parent="1" vertex="1">
          <mxGeometry x="715" y="2520" width="90" height="57" as="geometry" />
        </mxCell>
        <mxCell id="L0u9rooXJ6g8XEg4yprI-22" value="" style="shape=cylinder3;whiteSpace=wrap;html=1;boundedLbl=1;backgroundOutline=1;size=15;" parent="1" vertex="1">
          <mxGeometry x="340" y="2521.5" width="90" height="57" as="geometry" />
        </mxCell>
        <mxCell id="L0u9rooXJ6g8XEg4yprI-24" value="" style="shape=cylinder3;whiteSpace=wrap;html=1;boundedLbl=1;backgroundOutline=1;size=15;" parent="1" vertex="1">
          <mxGeometry x="523" y="2690.5" width="90" height="57" as="geometry" />
        </mxCell>
        <mxCell id="L0u9rooXJ6g8XEg4yprI-28" value="&lt;span style=&quot;font-size: 11px; background-color: rgb(255, 255, 255);&quot;&gt;10.1.1.2(NET)&lt;/span&gt;" style="text;html=1;strokeColor=none;fillColor=none;align=center;verticalAlign=middle;whiteSpace=wrap;rounded=0;" parent="1" vertex="1">
          <mxGeometry x="320" y="2493.5" width="60" height="30" as="geometry" />
        </mxCell>
        <mxCell id="L0u9rooXJ6g8XEg4yprI-30" value="1" style="text;html=1;strokeColor=none;fillColor=none;align=center;verticalAlign=middle;whiteSpace=wrap;rounded=0;" parent="1" vertex="1">
          <mxGeometry x="508" y="2530.5" width="21" height="29" as="geometry" />
        </mxCell>
        <mxCell id="L0u9rooXJ6g8XEg4yprI-31" value="1" style="text;html=1;strokeColor=none;fillColor=none;align=center;verticalAlign=middle;whiteSpace=wrap;rounded=0;" parent="1" vertex="1">
          <mxGeometry x="548.5" y="2576.5" width="21" height="29" as="geometry" />
        </mxCell>
        <mxCell id="L0u9rooXJ6g8XEg4yprI-32" value="&lt;span style=&quot;font-size: 11px; background-color: rgb(255, 255, 255);&quot;&gt;10.1.2.2(NET)&lt;/span&gt;" style="text;html=1;strokeColor=none;fillColor=none;align=center;verticalAlign=middle;whiteSpace=wrap;rounded=0;" parent="1" vertex="1">
          <mxGeometry x="620" y="2704" width="60" height="30" as="geometry" />
        </mxCell>
        <mxCell id="L0u9rooXJ6g8XEg4yprI-33" value="&lt;span style=&quot;font-size: 11px; background-color: rgb(255, 255, 255);&quot;&gt;10.1.3.3(NET)&lt;/span&gt;" style="text;html=1;strokeColor=none;fillColor=none;align=center;verticalAlign=middle;whiteSpace=wrap;rounded=0;" parent="1" vertex="1">
          <mxGeometry x="730" y="2490" width="60" height="30" as="geometry" />
        </mxCell>
        <mxCell id="L0u9rooXJ6g8XEg4yprI-34" value="1" style="text;html=1;strokeColor=none;fillColor=none;align=center;verticalAlign=middle;whiteSpace=wrap;rounded=0;" parent="1" vertex="1">
          <mxGeometry x="609" y="2530.5" width="21" height="29" as="geometry" />
        </mxCell>
        <mxCell id="L0u9rooXJ6g8XEg4yprI-35" value="1" style="text;html=1;strokeColor=none;fillColor=none;align=center;verticalAlign=middle;whiteSpace=wrap;rounded=0;" parent="1" vertex="1">
          <mxGeometry x="218" y="2521.5" width="21" height="29" as="geometry" />
        </mxCell>
        <mxCell id="L0u9rooXJ6g8XEg4yprI-37" value="1" style="text;html=1;strokeColor=none;fillColor=none;align=center;verticalAlign=middle;whiteSpace=wrap;rounded=0;" parent="1" vertex="1">
          <mxGeometry x="548.5" y="2811.5" width="21" height="29" as="geometry" />
        </mxCell>
        <mxCell id="L0u9rooXJ6g8XEg4yprI-40" value="0" style="text;html=1;strokeColor=none;fillColor=none;align=center;verticalAlign=middle;whiteSpace=wrap;rounded=0;" parent="1" vertex="1">
          <mxGeometry x="548.5" y="2661.5" width="21" height="29" as="geometry" />
        </mxCell>
        <mxCell id="L0u9rooXJ6g8XEg4yprI-41" value="0" style="text;html=1;strokeColor=none;fillColor=none;align=center;verticalAlign=middle;whiteSpace=wrap;rounded=0;" parent="1" vertex="1">
          <mxGeometry x="548.5" y="2747.5" width="21" height="29" as="geometry" />
        </mxCell>
        <mxCell id="L0u9rooXJ6g8XEg4yprI-42" value="0" style="text;html=1;strokeColor=none;fillColor=none;align=center;verticalAlign=middle;whiteSpace=wrap;rounded=0;" parent="1" vertex="1">
          <mxGeometry x="319" y="2521.5" width="21" height="29" as="geometry" />
        </mxCell>
        <mxCell id="L0u9rooXJ6g8XEg4yprI-43" value="0" style="text;html=1;strokeColor=none;fillColor=none;align=center;verticalAlign=middle;whiteSpace=wrap;rounded=0;" parent="1" vertex="1">
          <mxGeometry x="430" y="2523.5" width="21" height="29" as="geometry" />
        </mxCell>
        <mxCell id="L0u9rooXJ6g8XEg4yprI-44" value="1" style="text;html=1;strokeColor=none;fillColor=none;align=center;verticalAlign=middle;whiteSpace=wrap;rounded=0;" parent="1" vertex="1">
          <mxGeometry x="900" y="2420" width="21" height="29" as="geometry" />
        </mxCell>
        <mxCell id="L0u9rooXJ6g8XEg4yprI-45" value="1" style="text;html=1;strokeColor=none;fillColor=none;align=center;verticalAlign=middle;whiteSpace=wrap;rounded=0;" parent="1" vertex="1">
          <mxGeometry x="908" y="2605" width="21" height="29" as="geometry" />
        </mxCell>
        <mxCell id="L0u9rooXJ6g8XEg4yprI-46" value="0" style="text;html=1;strokeColor=none;fillColor=none;align=center;verticalAlign=middle;whiteSpace=wrap;rounded=0;" parent="1" vertex="1">
          <mxGeometry x="690" y="2527" width="21" height="29" as="geometry" />
        </mxCell>
        <mxCell id="L0u9rooXJ6g8XEg4yprI-47" value="0" style="text;html=1;strokeColor=none;fillColor=none;align=center;verticalAlign=middle;whiteSpace=wrap;rounded=0;" parent="1" vertex="1">
          <mxGeometry x="805" y="2510" width="21" height="29" as="geometry" />
        </mxCell>
        <mxCell id="L0u9rooXJ6g8XEg4yprI-48" value="0" style="text;html=1;strokeColor=none;fillColor=none;align=center;verticalAlign=middle;whiteSpace=wrap;rounded=0;" parent="1" vertex="1">
          <mxGeometry x="805" y="2557" width="21" height="29" as="geometry" />
        </mxCell>
        <mxCell id="ecVU5V3iF_kaXYYvdboo-1" value="" style="shape=mxgraph.cisco.routers.router;sketch=0;html=1;pointerEvents=1;dashed=0;fillColor=#036897;strokeColor=#ffffff;strokeWidth=2;verticalLabelPosition=bottom;verticalAlign=top;align=center;outlineConnect=0;" parent="1" vertex="1">
          <mxGeometry x="542" y="3308" width="78" height="53" as="geometry" />
        </mxCell>
        <mxCell id="ecVU5V3iF_kaXYYvdboo-10" style="edgeStyle=none;rounded=0;orthogonalLoop=1;jettySize=auto;html=1;exitX=0.5;exitY=1;exitDx=0;exitDy=0;exitPerimeter=0;entryX=0.5;entryY=0;entryDx=0;entryDy=0;entryPerimeter=0;endArrow=none;endFill=0;" parent="1" source="ecVU5V3iF_kaXYYvdboo-2" target="ecVU5V3iF_kaXYYvdboo-5" edge="1">
          <mxGeometry relative="1" as="geometry" />
        </mxCell>
        <mxCell id="ecVU5V3iF_kaXYYvdboo-2" value="" style="shape=mxgraph.cisco.routers.router;sketch=0;html=1;pointerEvents=1;dashed=0;fillColor=#036897;strokeColor=#ffffff;strokeWidth=2;verticalLabelPosition=bottom;verticalAlign=top;align=center;outlineConnect=0;" parent="1" vertex="1">
          <mxGeometry x="730" y="3007" width="78" height="53" as="geometry" />
        </mxCell>
        <mxCell id="ecVU5V3iF_kaXYYvdboo-7" style="edgeStyle=none;rounded=0;orthogonalLoop=1;jettySize=auto;html=1;exitX=0.5;exitY=1;exitDx=0;exitDy=0;exitPerimeter=0;entryX=0.5;entryY=0;entryDx=0;entryDy=0;entryPerimeter=0;endArrow=none;endFill=0;" parent="1" source="ecVU5V3iF_kaXYYvdboo-3" target="ecVU5V3iF_kaXYYvdboo-6" edge="1">
          <mxGeometry relative="1" as="geometry" />
        </mxCell>
        <mxCell id="ecVU5V3iF_kaXYYvdboo-3" value="" style="shape=mxgraph.cisco.routers.router;sketch=0;html=1;pointerEvents=1;dashed=0;fillColor=#036897;strokeColor=#ffffff;strokeWidth=2;verticalLabelPosition=bottom;verticalAlign=top;align=center;outlineConnect=0;" parent="1" vertex="1">
          <mxGeometry x="349" y="3010" width="78" height="53" as="geometry" />
        </mxCell>
        <mxCell id="ecVU5V3iF_kaXYYvdboo-9" style="edgeStyle=none;rounded=0;orthogonalLoop=1;jettySize=auto;html=1;exitX=1;exitY=0.5;exitDx=0;exitDy=0;exitPerimeter=0;entryX=0;entryY=0.5;entryDx=0;entryDy=0;entryPerimeter=0;endArrow=none;endFill=0;" parent="1" source="ecVU5V3iF_kaXYYvdboo-4" target="ecVU5V3iF_kaXYYvdboo-5" edge="1">
          <mxGeometry relative="1" as="geometry" />
        </mxCell>
        <mxCell id="ecVU5V3iF_kaXYYvdboo-11" style="edgeStyle=none;rounded=0;orthogonalLoop=1;jettySize=auto;html=1;exitX=0.5;exitY=1;exitDx=0;exitDy=0;exitPerimeter=0;endArrow=none;endFill=0;" parent="1" source="ecVU5V3iF_kaXYYvdboo-4" target="ecVU5V3iF_kaXYYvdboo-1" edge="1">
          <mxGeometry relative="1" as="geometry" />
        </mxCell>
        <mxCell id="ecVU5V3iF_kaXYYvdboo-4" value="" style="shape=mxgraph.cisco.routers.router;sketch=0;html=1;pointerEvents=1;dashed=0;fillColor=#036897;strokeColor=#ffffff;strokeWidth=2;verticalLabelPosition=bottom;verticalAlign=top;align=center;outlineConnect=0;" parent="1" vertex="1">
          <mxGeometry x="542" y="3160" width="78" height="53" as="geometry" />
        </mxCell>
        <mxCell id="ecVU5V3iF_kaXYYvdboo-5" value="" style="shape=mxgraph.cisco.routers.router;sketch=0;html=1;pointerEvents=1;dashed=0;fillColor=#036897;strokeColor=#ffffff;strokeWidth=2;verticalLabelPosition=bottom;verticalAlign=top;align=center;outlineConnect=0;" parent="1" vertex="1">
          <mxGeometry x="730" y="3160" width="78" height="53" as="geometry" />
        </mxCell>
        <mxCell id="ecVU5V3iF_kaXYYvdboo-8" style="edgeStyle=none;rounded=0;orthogonalLoop=1;jettySize=auto;html=1;exitX=1;exitY=0.5;exitDx=0;exitDy=0;exitPerimeter=0;entryX=0;entryY=0.5;entryDx=0;entryDy=0;entryPerimeter=0;endArrow=none;endFill=0;" parent="1" source="ecVU5V3iF_kaXYYvdboo-6" target="ecVU5V3iF_kaXYYvdboo-4" edge="1">
          <mxGeometry relative="1" as="geometry" />
        </mxCell>
        <mxCell id="ecVU5V3iF_kaXYYvdboo-6" value="" style="shape=mxgraph.cisco.routers.router;sketch=0;html=1;pointerEvents=1;dashed=0;fillColor=#036897;strokeColor=#ffffff;strokeWidth=2;verticalLabelPosition=bottom;verticalAlign=top;align=center;outlineConnect=0;" parent="1" vertex="1">
          <mxGeometry x="349" y="3160" width="78" height="53" as="geometry" />
        </mxCell>
        <mxCell id="ecVU5V3iF_kaXYYvdboo-12" value="60.1.1.2" style="text;html=1;strokeColor=none;fillColor=none;align=center;verticalAlign=middle;whiteSpace=wrap;rounded=0;" parent="1" vertex="1">
          <mxGeometry x="391" y="3060" width="60" height="30" as="geometry" />
        </mxCell>
        <mxCell id="ecVU5V3iF_kaXYYvdboo-13" value="60.1.1.1(DR)" style="text;html=1;strokeColor=none;fillColor=none;align=center;verticalAlign=middle;whiteSpace=wrap;rounded=0;" parent="1" vertex="1">
          <mxGeometry x="400" y="3130" width="60" height="30" as="geometry" />
        </mxCell>
        <mxCell id="ecVU5V3iF_kaXYYvdboo-14" value="60.1.1.1(DR)" style="text;html=1;strokeColor=none;fillColor=none;align=center;verticalAlign=middle;whiteSpace=wrap;rounded=0;" parent="1" vertex="1">
          <mxGeometry x="778" y="3130" width="60" height="30" as="geometry" />
        </mxCell>
        <mxCell id="ecVU5V3iF_kaXYYvdboo-15" value="60.1.1.2" style="text;html=1;strokeColor=none;fillColor=none;align=center;verticalAlign=middle;whiteSpace=wrap;rounded=0;" parent="1" vertex="1">
          <mxGeometry x="770" y="3063" width="60" height="30" as="geometry" />
        </mxCell>
        <mxCell id="ecVU5V3iF_kaXYYvdboo-16" value="10.1.1.0/24" style="text;html=1;strokeColor=none;fillColor=none;align=center;verticalAlign=middle;whiteSpace=wrap;rounded=0;" parent="1" vertex="1">
          <mxGeometry x="451" y="3190" width="60" height="30" as="geometry" />
        </mxCell>
        <mxCell id="ecVU5V3iF_kaXYYvdboo-17" value="10.1.2.0/24" style="text;html=1;strokeColor=none;fillColor=none;align=center;verticalAlign=middle;whiteSpace=wrap;rounded=0;" parent="1" vertex="1">
          <mxGeometry x="640" y="3190" width="60" height="30" as="geometry" />
        </mxCell>
        <mxCell id="ecVU5V3iF_kaXYYvdboo-18" value="10.1.3.0/24" style="text;html=1;strokeColor=none;fillColor=none;align=center;verticalAlign=middle;whiteSpace=wrap;rounded=0;" parent="1" vertex="1">
          <mxGeometry x="589.5" y="3250" width="60" height="30" as="geometry" />
        </mxCell>
      </root>
    </mxGraphModel>
  </diagram>
  <diagram id="4RgqFMFx5-ir8EaOn2tX" name="k8s_ingress">
    <mxGraphModel dx="1426" dy="912" grid="1" gridSize="10" guides="1" tooltips="1" connect="1" arrows="1" fold="1" page="1" pageScale="1" pageWidth="827" pageHeight="1169" math="0" shadow="0">
      <root>
        <mxCell id="0" />
        <mxCell id="1" parent="0" />
        <mxCell id="vAhtEp9A5ophLbgTTIP1-3" value="" style="rounded=1;whiteSpace=wrap;html=1;" vertex="1" parent="1">
          <mxGeometry x="200" y="440" width="440" height="120" as="geometry" />
        </mxCell>
        <mxCell id="vAhtEp9A5ophLbgTTIP1-15" style="rounded=0;orthogonalLoop=1;jettySize=auto;html=1;exitX=0.5;exitY=1;exitDx=0;exitDy=0;entryX=0.5;entryY=0;entryDx=0;entryDy=0;endArrow=none;startFill=0;" edge="1" parent="1" source="vAhtEp9A5ophLbgTTIP1-1" target="vAhtEp9A5ophLbgTTIP1-6">
          <mxGeometry relative="1" as="geometry" />
        </mxCell>
        <mxCell id="vAhtEp9A5ophLbgTTIP1-1" value="Pod1&lt;div&gt;172.17.0.4:80&lt;/div&gt;" style="rounded=0;whiteSpace=wrap;html=1;" vertex="1" parent="1">
          <mxGeometry x="270" y="480" width="120" height="60" as="geometry" />
        </mxCell>
        <mxCell id="vAhtEp9A5ophLbgTTIP1-16" style="rounded=0;orthogonalLoop=1;jettySize=auto;html=1;exitX=0.5;exitY=1;exitDx=0;exitDy=0;entryX=0.5;entryY=0;entryDx=0;entryDy=0;endArrow=none;startFill=0;" edge="1" parent="1" source="vAhtEp9A5ophLbgTTIP1-2" target="vAhtEp9A5ophLbgTTIP1-6">
          <mxGeometry relative="1" as="geometry" />
        </mxCell>
        <mxCell id="vAhtEp9A5ophLbgTTIP1-2" value="Pod2&lt;div&gt;172.17.0.6:80&lt;/div&gt;" style="rounded=0;whiteSpace=wrap;html=1;" vertex="1" parent="1">
          <mxGeometry x="470" y="480" width="120" height="60" as="geometry" />
        </mxCell>
        <mxCell id="vAhtEp9A5ophLbgTTIP1-4" value="Deploy" style="text;html=1;align=center;verticalAlign=middle;whiteSpace=wrap;rounded=0;" vertex="1" parent="1">
          <mxGeometry x="200" y="440" width="60" height="30" as="geometry" />
        </mxCell>
        <mxCell id="vAhtEp9A5ophLbgTTIP1-13" style="rounded=0;orthogonalLoop=1;jettySize=auto;html=1;exitX=0.5;exitY=1;exitDx=0;exitDy=0;entryX=0.5;entryY=0;entryDx=0;entryDy=0;" edge="1" parent="1" source="vAhtEp9A5ophLbgTTIP1-5" target="vAhtEp9A5ophLbgTTIP1-1">
          <mxGeometry relative="1" as="geometry" />
        </mxCell>
        <mxCell id="vAhtEp9A5ophLbgTTIP1-14" style="rounded=0;orthogonalLoop=1;jettySize=auto;html=1;exitX=0.5;exitY=1;exitDx=0;exitDy=0;entryX=0.5;entryY=0;entryDx=0;entryDy=0;" edge="1" parent="1" source="vAhtEp9A5ophLbgTTIP1-5" target="vAhtEp9A5ophLbgTTIP1-2">
          <mxGeometry relative="1" as="geometry" />
        </mxCell>
        <mxCell id="vAhtEp9A5ophLbgTTIP1-5" value="Service&lt;div&gt;Cluster IP:10.109.139.192:80&lt;/div&gt;&lt;div&gt;NodePort:32463&lt;/div&gt;" style="rounded=1;whiteSpace=wrap;html=1;" vertex="1" parent="1">
          <mxGeometry x="200" y="320" width="440" height="60" as="geometry" />
        </mxCell>
        <mxCell id="vAhtEp9A5ophLbgTTIP1-6" value="Bridge docker0&lt;div&gt;172.17.0.1&lt;/div&gt;" style="rounded=0;whiteSpace=wrap;html=1;" vertex="1" parent="1">
          <mxGeometry x="360" y="600" width="120" height="60" as="geometry" />
        </mxCell>
        <mxCell id="vAhtEp9A5ophLbgTTIP1-10" style="edgeStyle=orthogonalEdgeStyle;rounded=0;orthogonalLoop=1;jettySize=auto;html=1;exitX=1;exitY=0.5;exitDx=0;exitDy=0;entryX=0;entryY=0.5;entryDx=0;entryDy=0;endArrow=none;startFill=0;" edge="1" parent="1" source="vAhtEp9A5ophLbgTTIP1-7" target="vAhtEp9A5ophLbgTTIP1-9">
          <mxGeometry relative="1" as="geometry" />
        </mxCell>
        <mxCell id="vAhtEp9A5ophLbgTTIP1-7" value="veth eth0&lt;div&gt;192.168.49.2&lt;/div&gt;" style="rounded=0;whiteSpace=wrap;html=1;" vertex="1" parent="1">
          <mxGeometry x="360" y="720" width="120" height="60" as="geometry" />
        </mxCell>
        <mxCell id="vAhtEp9A5ophLbgTTIP1-8" value="Bridge docker0&lt;div&gt;192.168.49.1&lt;/div&gt;" style="rounded=0;whiteSpace=wrap;html=1;" vertex="1" parent="1">
          <mxGeometry x="920" y="600" width="120" height="60" as="geometry" />
        </mxCell>
        <mxCell id="vAhtEp9A5ophLbgTTIP1-11" style="edgeStyle=orthogonalEdgeStyle;rounded=0;orthogonalLoop=1;jettySize=auto;html=1;exitX=0.5;exitY=0;exitDx=0;exitDy=0;entryX=0.5;entryY=1;entryDx=0;entryDy=0;endArrow=none;startFill=0;" edge="1" parent="1" source="vAhtEp9A5ophLbgTTIP1-9" target="vAhtEp9A5ophLbgTTIP1-8">
          <mxGeometry relative="1" as="geometry" />
        </mxCell>
        <mxCell id="vAhtEp9A5ophLbgTTIP1-9" value="veth&amp;nbsp;vethc23e552" style="rounded=0;whiteSpace=wrap;html=1;" vertex="1" parent="1">
          <mxGeometry x="920" y="720" width="120" height="60" as="geometry" />
        </mxCell>
        <mxCell id="vAhtEp9A5ophLbgTTIP1-12" value="" style="endArrow=none;dashed=1;html=1;dashPattern=1 3;strokeWidth=2;rounded=0;" edge="1" parent="1">
          <mxGeometry width="50" height="50" relative="1" as="geometry">
            <mxPoint x="828" y="880" as="sourcePoint" />
            <mxPoint x="828" y="160" as="targetPoint" />
          </mxGeometry>
        </mxCell>
        <mxCell id="vAhtEp9A5ophLbgTTIP1-17" value="32463" style="ellipse;whiteSpace=wrap;html=1;aspect=fixed;" vertex="1" parent="1">
          <mxGeometry x="1060" y="730" width="40" height="40" as="geometry" />
        </mxCell>
        <mxCell id="vAhtEp9A5ophLbgTTIP1-20" style="edgeStyle=orthogonalEdgeStyle;rounded=0;orthogonalLoop=1;jettySize=auto;html=1;exitX=0.5;exitY=1;exitDx=0;exitDy=0;entryX=0.5;entryY=1;entryDx=0;entryDy=0;flowAnimation=0;endArrow=none;startFill=0;" edge="1" parent="1" source="vAhtEp9A5ophLbgTTIP1-18" target="vAhtEp9A5ophLbgTTIP1-17">
          <mxGeometry relative="1" as="geometry">
            <Array as="points">
              <mxPoint x="680" y="830" />
              <mxPoint x="1080" y="830" />
            </Array>
          </mxGeometry>
        </mxCell>
        <mxCell id="vAhtEp9A5ophLbgTTIP1-18" value="32463" style="ellipse;whiteSpace=wrap;html=1;aspect=fixed;" vertex="1" parent="1">
          <mxGeometry x="660" y="330" width="40" height="40" as="geometry" />
        </mxCell>
        <mxCell id="vAhtEp9A5ophLbgTTIP1-22" style="edgeStyle=orthogonalEdgeStyle;rounded=0;orthogonalLoop=1;jettySize=auto;html=1;exitX=0.5;exitY=1;exitDx=0;exitDy=0;entryX=0.5;entryY=0;entryDx=0;entryDy=0;" edge="1" parent="1" source="vAhtEp9A5ophLbgTTIP1-21" target="vAhtEp9A5ophLbgTTIP1-5">
          <mxGeometry relative="1" as="geometry" />
        </mxCell>
        <mxCell id="vAhtEp9A5ophLbgTTIP1-21" value="Ingress&lt;div&gt;ngx.test:80&lt;/div&gt;" style="rounded=1;whiteSpace=wrap;html=1;" vertex="1" parent="1">
          <mxGeometry x="200" y="220" width="440" height="60" as="geometry" />
        </mxCell>
        <mxCell id="vAhtEp9A5ophLbgTTIP1-23" value="8080" style="ellipse;whiteSpace=wrap;html=1;aspect=fixed;" vertex="1" parent="1">
          <mxGeometry x="1140" y="730" width="40" height="40" as="geometry" />
        </mxCell>
        <mxCell id="vAhtEp9A5ophLbgTTIP1-25" style="edgeStyle=orthogonalEdgeStyle;rounded=0;orthogonalLoop=1;jettySize=auto;html=1;exitX=0.5;exitY=1;exitDx=0;exitDy=0;entryX=0.5;entryY=1;entryDx=0;entryDy=0;endArrow=none;endFill=1;startFill=0;" edge="1" parent="1" source="vAhtEp9A5ophLbgTTIP1-24" target="vAhtEp9A5ophLbgTTIP1-23">
          <mxGeometry relative="1" as="geometry">
            <Array as="points">
              <mxPoint x="740" y="270" />
              <mxPoint x="740" y="900" />
              <mxPoint x="1160" y="900" />
            </Array>
          </mxGeometry>
        </mxCell>
        <mxCell id="vAhtEp9A5ophLbgTTIP1-24" value="80" style="ellipse;whiteSpace=wrap;html=1;aspect=fixed;" vertex="1" parent="1">
          <mxGeometry x="660" y="230" width="40" height="40" as="geometry" />
        </mxCell>
        <mxCell id="vAhtEp9A5ophLbgTTIP1-26" value="" style="endArrow=none;dashed=1;html=1;rounded=0;" edge="1" parent="1">
          <mxGeometry width="50" height="50" relative="1" as="geometry">
            <mxPoint x="120" y="300" as="sourcePoint" />
            <mxPoint x="820" y="290" as="targetPoint" />
          </mxGeometry>
        </mxCell>
        <mxCell id="vAhtEp9A5ophLbgTTIP1-27" value="namespace: default" style="text;html=1;align=center;verticalAlign=middle;whiteSpace=wrap;rounded=0;" vertex="1" parent="1">
          <mxGeometry x="120" y="310" width="60" height="30" as="geometry" />
        </mxCell>
        <mxCell id="vAhtEp9A5ophLbgTTIP1-28" value="namespace: nginx-ingress" style="text;html=1;align=center;verticalAlign=middle;whiteSpace=wrap;rounded=0;" vertex="1" parent="1">
          <mxGeometry x="120" y="260" width="60" height="30" as="geometry" />
        </mxCell>
      </root>
    </mxGraphModel>
  </diagram>
  <diagram id="R0r9yjpD_laz3j0wydDq" name="k8s_minikube">
    <mxGraphModel dx="1901" dy="1216" grid="1" gridSize="10" guides="1" tooltips="1" connect="1" arrows="1" fold="1" page="1" pageScale="1" pageWidth="827" pageHeight="1169" math="0" shadow="0">
      <root>
        <mxCell id="0" />
        <mxCell id="1" parent="0" />
        <mxCell id="wYvV5N4zJiq9eDEAQSyn-1" value="" style="rounded=1;whiteSpace=wrap;html=1;" vertex="1" parent="1">
          <mxGeometry x="310" y="370" width="440" height="120" as="geometry" />
        </mxCell>
        <mxCell id="wYvV5N4zJiq9eDEAQSyn-2" style="rounded=0;orthogonalLoop=1;jettySize=auto;html=1;exitX=0.5;exitY=1;exitDx=0;exitDy=0;entryX=0.5;entryY=0;entryDx=0;entryDy=0;endArrow=none;startFill=0;" edge="1" parent="1" source="wYvV5N4zJiq9eDEAQSyn-3" target="wYvV5N4zJiq9eDEAQSyn-7">
          <mxGeometry relative="1" as="geometry" />
        </mxCell>
        <mxCell id="wYvV5N4zJiq9eDEAQSyn-3" value="Pod1&lt;div&gt;172.17.0.3&lt;/div&gt;" style="rounded=0;whiteSpace=wrap;html=1;" vertex="1" parent="1">
          <mxGeometry x="470" y="410" width="120" height="60" as="geometry" />
        </mxCell>
        <mxCell id="wYvV5N4zJiq9eDEAQSyn-6" value="Deploy" style="text;html=1;align=center;verticalAlign=middle;whiteSpace=wrap;rounded=0;" vertex="1" parent="1">
          <mxGeometry x="310" y="370" width="60" height="30" as="geometry" />
        </mxCell>
        <mxCell id="wYvV5N4zJiq9eDEAQSyn-7" value="Bridge docker0&lt;div&gt;172.17.0.1&lt;/div&gt;" style="rounded=0;whiteSpace=wrap;html=1;" vertex="1" parent="1">
          <mxGeometry x="470" y="530" width="120" height="60" as="geometry" />
        </mxCell>
        <mxCell id="wYvV5N4zJiq9eDEAQSyn-8" style="edgeStyle=orthogonalEdgeStyle;rounded=0;orthogonalLoop=1;jettySize=auto;html=1;exitX=1;exitY=0.5;exitDx=0;exitDy=0;entryX=0;entryY=0.5;entryDx=0;entryDy=0;endArrow=none;startFill=0;" edge="1" parent="1" source="wYvV5N4zJiq9eDEAQSyn-9" target="wYvV5N4zJiq9eDEAQSyn-12">
          <mxGeometry relative="1" as="geometry" />
        </mxCell>
        <mxCell id="wYvV5N4zJiq9eDEAQSyn-9" value="veth eth0&lt;div&gt;192.168.49.2&lt;/div&gt;" style="rounded=0;whiteSpace=wrap;html=1;" vertex="1" parent="1">
          <mxGeometry x="470" y="780" width="120" height="60" as="geometry" />
        </mxCell>
        <mxCell id="wYvV5N4zJiq9eDEAQSyn-10" value="Bridge br-91f77a0032a8&lt;div&gt;192.168.49.1&lt;/div&gt;" style="rounded=0;whiteSpace=wrap;html=1;" vertex="1" parent="1">
          <mxGeometry x="770" y="530" width="120" height="60" as="geometry" />
        </mxCell>
        <mxCell id="wYvV5N4zJiq9eDEAQSyn-11" style="edgeStyle=orthogonalEdgeStyle;rounded=0;orthogonalLoop=1;jettySize=auto;html=1;exitX=0.5;exitY=0;exitDx=0;exitDy=0;entryX=0.5;entryY=1;entryDx=0;entryDy=0;endArrow=none;startFill=0;" edge="1" parent="1" source="wYvV5N4zJiq9eDEAQSyn-12" target="wYvV5N4zJiq9eDEAQSyn-10">
          <mxGeometry relative="1" as="geometry" />
        </mxCell>
        <mxCell id="wYvV5N4zJiq9eDEAQSyn-12" value="veth&amp;nbsp;vethc23e552" style="rounded=0;whiteSpace=wrap;html=1;" vertex="1" parent="1">
          <mxGeometry x="690" y="780" width="120" height="60" as="geometry" />
        </mxCell>
        <mxCell id="bFK8EjsCLzfKVp6LAF61-1" value="" style="endArrow=none;dashed=1;html=1;dashPattern=1 3;strokeWidth=2;rounded=0;" edge="1" parent="1">
          <mxGeometry width="50" height="50" relative="1" as="geometry">
            <mxPoint x="828" y="940" as="sourcePoint" />
            <mxPoint x="828" y="300" as="targetPoint" />
          </mxGeometry>
        </mxCell>
        <mxCell id="bFK8EjsCLzfKVp6LAF61-2" value="Master&amp;nbsp;&lt;div&gt;Node&lt;/div&gt;" style="text;html=1;align=center;verticalAlign=middle;whiteSpace=wrap;rounded=0;" vertex="1" parent="1">
          <mxGeometry x="760" y="300" width="60" height="30" as="geometry" />
        </mxCell>
        <mxCell id="bFK8EjsCLzfKVp6LAF61-3" value="Worker&lt;br&gt;&lt;div&gt;Node&lt;/div&gt;" style="text;html=1;align=center;verticalAlign=middle;whiteSpace=wrap;rounded=0;" vertex="1" parent="1">
          <mxGeometry x="840" y="300" width="60" height="30" as="geometry" />
        </mxCell>
        <mxCell id="bFK8EjsCLzfKVp6LAF61-5" value="" style="rounded=1;whiteSpace=wrap;html=1;" vertex="1" parent="1">
          <mxGeometry x="920" y="370" width="440" height="120" as="geometry" />
        </mxCell>
        <mxCell id="bFK8EjsCLzfKVp6LAF61-15" style="rounded=0;orthogonalLoop=1;jettySize=auto;html=1;exitX=0.5;exitY=1;exitDx=0;exitDy=0;endArrow=none;startFill=0;entryX=0.5;entryY=0;entryDx=0;entryDy=0;" edge="1" parent="1" source="bFK8EjsCLzfKVp6LAF61-6" target="bFK8EjsCLzfKVp6LAF61-14">
          <mxGeometry relative="1" as="geometry" />
        </mxCell>
        <mxCell id="bFK8EjsCLzfKVp6LAF61-6" value="Pod2&lt;div&gt;172.17.0.2&lt;/div&gt;" style="rounded=0;whiteSpace=wrap;html=1;" vertex="1" parent="1">
          <mxGeometry x="970" y="410" width="120" height="60" as="geometry" />
        </mxCell>
        <mxCell id="bFK8EjsCLzfKVp6LAF61-16" style="rounded=0;orthogonalLoop=1;jettySize=auto;html=1;exitX=0.5;exitY=1;exitDx=0;exitDy=0;entryX=0.5;entryY=0;entryDx=0;entryDy=0;endArrow=none;startFill=0;" edge="1" parent="1" source="bFK8EjsCLzfKVp6LAF61-7" target="bFK8EjsCLzfKVp6LAF61-14">
          <mxGeometry relative="1" as="geometry" />
        </mxCell>
        <mxCell id="bFK8EjsCLzfKVp6LAF61-7" value="Pod3&lt;br&gt;&lt;div&gt;172.17.0.3&lt;/div&gt;" style="rounded=0;whiteSpace=wrap;html=1;" vertex="1" parent="1">
          <mxGeometry x="1181" y="410" width="120" height="60" as="geometry" />
        </mxCell>
        <mxCell id="bFK8EjsCLzfKVp6LAF61-8" value="Deploy" style="text;html=1;align=center;verticalAlign=middle;whiteSpace=wrap;rounded=0;" vertex="1" parent="1">
          <mxGeometry x="920" y="370" width="60" height="30" as="geometry" />
        </mxCell>
        <mxCell id="bFK8EjsCLzfKVp6LAF61-10" value="veth eth0&lt;div&gt;192.168.49.3&lt;/div&gt;" style="rounded=0;whiteSpace=wrap;html=1;" vertex="1" parent="1">
          <mxGeometry x="1070" y="780" width="120" height="60" as="geometry" />
        </mxCell>
        <mxCell id="bFK8EjsCLzfKVp6LAF61-12" value="" style="edgeStyle=orthogonalEdgeStyle;rounded=0;orthogonalLoop=1;jettySize=auto;html=1;endArrow=none;startFill=0;" edge="1" parent="1" source="bFK8EjsCLzfKVp6LAF61-11" target="bFK8EjsCLzfKVp6LAF61-10">
          <mxGeometry relative="1" as="geometry">
            <Array as="points">
              <mxPoint x="1010" y="810" />
              <mxPoint x="1010" y="810" />
            </Array>
          </mxGeometry>
        </mxCell>
        <mxCell id="bFK8EjsCLzfKVp6LAF61-13" style="edgeStyle=orthogonalEdgeStyle;rounded=0;orthogonalLoop=1;jettySize=auto;html=1;exitX=0.5;exitY=0;exitDx=0;exitDy=0;endArrow=none;startFill=0;" edge="1" parent="1" source="bFK8EjsCLzfKVp6LAF61-11">
          <mxGeometry relative="1" as="geometry">
            <mxPoint x="830" y="590" as="targetPoint" />
          </mxGeometry>
        </mxCell>
        <mxCell id="bFK8EjsCLzfKVp6LAF61-11" value="veth&amp;nbsp;veth623e0ca" style="rounded=0;whiteSpace=wrap;html=1;" vertex="1" parent="1">
          <mxGeometry x="850" y="780" width="120" height="60" as="geometry" />
        </mxCell>
        <mxCell id="bFK8EjsCLzfKVp6LAF61-14" value="Bridge docker0&lt;div&gt;172.17.0.1&lt;/div&gt;" style="rounded=0;whiteSpace=wrap;html=1;" vertex="1" parent="1">
          <mxGeometry x="1090" y="530" width="120" height="60" as="geometry" />
        </mxCell>
      </root>
    </mxGraphModel>
  </diagram>
  <diagram name="k8s_flannel" id="mV23ueWxd2Ocp46cl-11">
    <mxGraphModel dx="1426" dy="912" grid="1" gridSize="10" guides="1" tooltips="1" connect="1" arrows="1" fold="1" page="1" pageScale="1" pageWidth="827" pageHeight="1169" math="0" shadow="0">
      <root>
        <mxCell id="n3aH_oxlcctMzIKe3FwA-0" />
        <mxCell id="n3aH_oxlcctMzIKe3FwA-1" parent="n3aH_oxlcctMzIKe3FwA-0" />
        <mxCell id="n3aH_oxlcctMzIKe3FwA-2" value="" style="rounded=1;whiteSpace=wrap;html=1;" vertex="1" parent="n3aH_oxlcctMzIKe3FwA-1">
          <mxGeometry x="310" y="370" width="440" height="120" as="geometry" />
        </mxCell>
        <mxCell id="n3aH_oxlcctMzIKe3FwA-3" style="rounded=0;orthogonalLoop=1;jettySize=auto;html=1;exitX=0.5;exitY=1;exitDx=0;exitDy=0;entryX=0.5;entryY=0;entryDx=0;entryDy=0;endArrow=classic;startFill=1;startArrow=classic;endFill=1;" edge="1" parent="n3aH_oxlcctMzIKe3FwA-1" source="n3aH_oxlcctMzIKe3FwA-4" target="n3aH_oxlcctMzIKe3FwA-9">
          <mxGeometry relative="1" as="geometry" />
        </mxCell>
        <mxCell id="n3aH_oxlcctMzIKe3FwA-4" value="Pod1&lt;div&gt;10.244.0.2&lt;/div&gt;" style="rounded=0;whiteSpace=wrap;html=1;" vertex="1" parent="n3aH_oxlcctMzIKe3FwA-1">
          <mxGeometry x="470" y="400" width="120" height="60" as="geometry" />
        </mxCell>
        <mxCell id="n3aH_oxlcctMzIKe3FwA-7" value="Deploy" style="text;html=1;align=center;verticalAlign=middle;whiteSpace=wrap;rounded=0;" vertex="1" parent="n3aH_oxlcctMzIKe3FwA-1">
          <mxGeometry x="310" y="370" width="60" height="30" as="geometry" />
        </mxCell>
        <mxCell id="xAaK2xAhxumtT9syvB03-12" style="edgeStyle=orthogonalEdgeStyle;rounded=0;orthogonalLoop=1;jettySize=auto;html=1;exitX=0.5;exitY=1;exitDx=0;exitDy=0;entryX=0.5;entryY=0;entryDx=0;entryDy=0;startArrow=classic;startFill=1;" edge="1" parent="n3aH_oxlcctMzIKe3FwA-1" source="n3aH_oxlcctMzIKe3FwA-9" target="xAaK2xAhxumtT9syvB03-0">
          <mxGeometry relative="1" as="geometry" />
        </mxCell>
        <mxCell id="n3aH_oxlcctMzIKe3FwA-9" value="Bridge cni0&lt;div&gt;10.244.0.1&lt;/div&gt;" style="rounded=0;whiteSpace=wrap;html=1;" vertex="1" parent="n3aH_oxlcctMzIKe3FwA-1">
          <mxGeometry x="470" y="530" width="120" height="60" as="geometry" />
        </mxCell>
        <mxCell id="n3aH_oxlcctMzIKe3FwA-10" style="edgeStyle=orthogonalEdgeStyle;rounded=0;orthogonalLoop=1;jettySize=auto;html=1;exitX=1;exitY=0.5;exitDx=0;exitDy=0;endArrow=classic;startFill=1;entryX=0;entryY=0.5;entryDx=0;entryDy=0;startArrow=classic;endFill=1;" edge="1" parent="n3aH_oxlcctMzIKe3FwA-1" source="n3aH_oxlcctMzIKe3FwA-11" target="xAaK2xAhxumtT9syvB03-9">
          <mxGeometry relative="1" as="geometry">
            <mxPoint x="940" y="810" as="targetPoint" />
          </mxGeometry>
        </mxCell>
        <mxCell id="n3aH_oxlcctMzIKe3FwA-11" value="eth0&lt;div&gt;192.168.49.2&lt;/div&gt;" style="rounded=0;whiteSpace=wrap;html=1;" vertex="1" parent="n3aH_oxlcctMzIKe3FwA-1">
          <mxGeometry x="470" y="780" width="120" height="60" as="geometry" />
        </mxCell>
        <mxCell id="xAaK2xAhxumtT9syvB03-13" style="edgeStyle=orthogonalEdgeStyle;rounded=0;orthogonalLoop=1;jettySize=auto;html=1;exitX=0.5;exitY=1;exitDx=0;exitDy=0;entryX=0.5;entryY=0;entryDx=0;entryDy=0;startArrow=classic;startFill=1;endArrow=classic;endFill=1;" edge="1" parent="n3aH_oxlcctMzIKe3FwA-1" source="xAaK2xAhxumtT9syvB03-0" target="n3aH_oxlcctMzIKe3FwA-11">
          <mxGeometry relative="1" as="geometry" />
        </mxCell>
        <mxCell id="xAaK2xAhxumtT9syvB03-0" value="Bridge flannel.1&lt;div&gt;10.244.0.0/32&lt;/div&gt;" style="rounded=0;whiteSpace=wrap;html=1;" vertex="1" parent="n3aH_oxlcctMzIKe3FwA-1">
          <mxGeometry x="470" y="660" width="120" height="60" as="geometry" />
        </mxCell>
        <mxCell id="xAaK2xAhxumtT9syvB03-1" value="" style="rounded=1;whiteSpace=wrap;html=1;" vertex="1" parent="n3aH_oxlcctMzIKe3FwA-1">
          <mxGeometry x="870" y="370" width="440" height="120" as="geometry" />
        </mxCell>
        <mxCell id="xAaK2xAhxumtT9syvB03-6" value="Deploy" style="text;html=1;align=center;verticalAlign=middle;whiteSpace=wrap;rounded=0;" vertex="1" parent="n3aH_oxlcctMzIKe3FwA-1">
          <mxGeometry x="870" y="370" width="60" height="30" as="geometry" />
        </mxCell>
        <mxCell id="xAaK2xAhxumtT9syvB03-7" style="rounded=0;orthogonalLoop=1;jettySize=auto;html=1;exitX=0.5;exitY=0;exitDx=0;exitDy=0;endArrow=classic;startFill=1;entryX=0.5;entryY=1;entryDx=0;entryDy=0;startArrow=classic;endFill=1;" edge="1" parent="n3aH_oxlcctMzIKe3FwA-1" source="xAaK2xAhxumtT9syvB03-8" target="xAaK2xAhxumtT9syvB03-10">
          <mxGeometry relative="1" as="geometry" />
        </mxCell>
        <mxCell id="xAaK2xAhxumtT9syvB03-14" style="edgeStyle=orthogonalEdgeStyle;rounded=0;orthogonalLoop=1;jettySize=auto;html=1;exitX=0.5;exitY=1;exitDx=0;exitDy=0;entryX=0.5;entryY=0;entryDx=0;entryDy=0;startArrow=classic;startFill=1;endArrow=classic;endFill=1;" edge="1" parent="n3aH_oxlcctMzIKe3FwA-1" source="xAaK2xAhxumtT9syvB03-8" target="xAaK2xAhxumtT9syvB03-11">
          <mxGeometry relative="1" as="geometry" />
        </mxCell>
        <mxCell id="KdQhl1IG2v6UJIlO3DQ5-1" style="rounded=0;orthogonalLoop=1;jettySize=auto;html=1;exitX=0.5;exitY=0;exitDx=0;exitDy=0;entryX=0.5;entryY=1;entryDx=0;entryDy=0;startArrow=classic;startFill=1;" edge="1" parent="n3aH_oxlcctMzIKe3FwA-1" source="xAaK2xAhxumtT9syvB03-8" target="KdQhl1IG2v6UJIlO3DQ5-0">
          <mxGeometry relative="1" as="geometry" />
        </mxCell>
        <mxCell id="xAaK2xAhxumtT9syvB03-8" value="Bridge cni0&lt;div&gt;10.244.1.1&lt;/div&gt;" style="rounded=0;whiteSpace=wrap;html=1;" vertex="1" parent="n3aH_oxlcctMzIKe3FwA-1">
          <mxGeometry x="1030" y="530" width="120" height="60" as="geometry" />
        </mxCell>
        <mxCell id="xAaK2xAhxumtT9syvB03-9" value="eth0&lt;div&gt;192.168.49.3&lt;/div&gt;" style="rounded=0;whiteSpace=wrap;html=1;" vertex="1" parent="n3aH_oxlcctMzIKe3FwA-1">
          <mxGeometry x="1030" y="780" width="120" height="60" as="geometry" />
        </mxCell>
        <mxCell id="xAaK2xAhxumtT9syvB03-10" value="Pod2&lt;br&gt;&lt;div&gt;10.244.1.2&lt;/div&gt;" style="rounded=0;whiteSpace=wrap;html=1;" vertex="1" parent="n3aH_oxlcctMzIKe3FwA-1">
          <mxGeometry x="940" y="400" width="120" height="60" as="geometry" />
        </mxCell>
        <mxCell id="xAaK2xAhxumtT9syvB03-15" style="edgeStyle=orthogonalEdgeStyle;rounded=0;orthogonalLoop=1;jettySize=auto;html=1;exitX=0.5;exitY=1;exitDx=0;exitDy=0;entryX=0.5;entryY=0;entryDx=0;entryDy=0;startArrow=classic;startFill=1;endArrow=classic;endFill=1;" edge="1" parent="n3aH_oxlcctMzIKe3FwA-1" source="xAaK2xAhxumtT9syvB03-11" target="xAaK2xAhxumtT9syvB03-9">
          <mxGeometry relative="1" as="geometry" />
        </mxCell>
        <mxCell id="xAaK2xAhxumtT9syvB03-11" value="Bridge flannel.1&lt;div&gt;10.244.1.0/32&lt;/div&gt;" style="rounded=0;whiteSpace=wrap;html=1;" vertex="1" parent="n3aH_oxlcctMzIKe3FwA-1">
          <mxGeometry x="1030" y="660" width="120" height="60" as="geometry" />
        </mxCell>
        <mxCell id="xAaK2xAhxumtT9syvB03-16" value="" style="endArrow=none;dashed=1;html=1;dashPattern=1 3;strokeWidth=2;rounded=0;" edge="1" parent="n3aH_oxlcctMzIKe3FwA-1">
          <mxGeometry width="50" height="50" relative="1" as="geometry">
            <mxPoint x="828" y="920" as="sourcePoint" />
            <mxPoint x="828" y="280" as="targetPoint" />
          </mxGeometry>
        </mxCell>
        <mxCell id="xAaK2xAhxumtT9syvB03-17" value="Master&amp;nbsp;&lt;div&gt;Node&lt;/div&gt;" style="text;html=1;align=center;verticalAlign=middle;whiteSpace=wrap;rounded=0;" vertex="1" parent="n3aH_oxlcctMzIKe3FwA-1">
          <mxGeometry x="760" y="280" width="60" height="30" as="geometry" />
        </mxCell>
        <mxCell id="xAaK2xAhxumtT9syvB03-18" value="Worker&lt;br&gt;&lt;div&gt;Node&lt;/div&gt;" style="text;html=1;align=center;verticalAlign=middle;whiteSpace=wrap;rounded=0;" vertex="1" parent="n3aH_oxlcctMzIKe3FwA-1">
          <mxGeometry x="840" y="280" width="60" height="30" as="geometry" />
        </mxCell>
        <mxCell id="xAaK2xAhxumtT9syvB03-19" value="" style="curved=1;endArrow=classic;html=1;rounded=0;startArrow=classic;startFill=1;sketch=1;curveFitting=1;jiggle=2;endSize=10;startSize=10;fillColor=#d5e8d4;strokeColor=#82b366;" edge="1" parent="n3aH_oxlcctMzIKe3FwA-1">
          <mxGeometry width="50" height="50" relative="1" as="geometry">
            <mxPoint x="540" y="730" as="sourcePoint" />
            <mxPoint x="1070" y="730" as="targetPoint" />
            <Array as="points">
              <mxPoint x="660" y="840" />
              <mxPoint x="830" y="840" />
              <mxPoint x="990" y="830" />
            </Array>
          </mxGeometry>
        </mxCell>
        <mxCell id="xAaK2xAhxumtT9syvB03-21" value="VXLAN" style="edgeLabel;html=1;align=center;verticalAlign=middle;resizable=0;points=[];" vertex="1" connectable="0" parent="xAaK2xAhxumtT9syvB03-19">
          <mxGeometry x="-0.0026" y="3" relative="1" as="geometry">
            <mxPoint x="20" y="3" as="offset" />
          </mxGeometry>
        </mxCell>
        <mxCell id="KdQhl1IG2v6UJIlO3DQ5-0" value="Pod3&lt;br&gt;&lt;div&gt;10.244.1.3&lt;/div&gt;" style="rounded=0;whiteSpace=wrap;html=1;" vertex="1" parent="n3aH_oxlcctMzIKe3FwA-1">
          <mxGeometry x="1110" y="400" width="120" height="60" as="geometry" />
        </mxCell>
      </root>
    </mxGraphModel>
  </diagram>
  <diagram name="k8s_calico" id="83HTiWE_dH-lSKAcTMyA">
    <mxGraphModel dx="1426" dy="912" grid="1" gridSize="10" guides="1" tooltips="1" connect="1" arrows="1" fold="1" page="1" pageScale="1" pageWidth="827" pageHeight="1169" math="0" shadow="0">
      <root>
        <mxCell id="FyvVRAaz4v-ftZ1C-PEl-0" />
        <mxCell id="FyvVRAaz4v-ftZ1C-PEl-1" parent="FyvVRAaz4v-ftZ1C-PEl-0" />
        <mxCell id="FyvVRAaz4v-ftZ1C-PEl-2" value="" style="rounded=1;whiteSpace=wrap;html=1;" vertex="1" parent="FyvVRAaz4v-ftZ1C-PEl-1">
          <mxGeometry x="310" y="370" width="440" height="120" as="geometry" />
        </mxCell>
        <mxCell id="FyvVRAaz4v-ftZ1C-PEl-3" style="rounded=0;orthogonalLoop=1;jettySize=auto;html=1;exitX=0.5;exitY=1;exitDx=0;exitDy=0;entryX=0.5;entryY=0;entryDx=0;entryDy=0;endArrow=classic;startFill=1;startArrow=classic;endFill=1;" edge="1" parent="FyvVRAaz4v-ftZ1C-PEl-1" source="FyvVRAaz4v-ftZ1C-PEl-4" target="FyvVRAaz4v-ftZ1C-PEl-7">
          <mxGeometry relative="1" as="geometry" />
        </mxCell>
        <mxCell id="FyvVRAaz4v-ftZ1C-PEl-4" value="Pod1&lt;div&gt;10.244.0.2&lt;/div&gt;" style="rounded=0;whiteSpace=wrap;html=1;" vertex="1" parent="FyvVRAaz4v-ftZ1C-PEl-1">
          <mxGeometry x="470" y="400" width="120" height="60" as="geometry" />
        </mxCell>
        <mxCell id="FyvVRAaz4v-ftZ1C-PEl-5" value="Deploy" style="text;html=1;align=center;verticalAlign=middle;whiteSpace=wrap;rounded=0;" vertex="1" parent="FyvVRAaz4v-ftZ1C-PEl-1">
          <mxGeometry x="310" y="370" width="60" height="30" as="geometry" />
        </mxCell>
        <mxCell id="FyvVRAaz4v-ftZ1C-PEl-6" style="edgeStyle=orthogonalEdgeStyle;rounded=0;orthogonalLoop=1;jettySize=auto;html=1;exitX=0.5;exitY=1;exitDx=0;exitDy=0;entryX=0.5;entryY=0;entryDx=0;entryDy=0;startArrow=classic;startFill=1;" edge="1" parent="FyvVRAaz4v-ftZ1C-PEl-1" source="FyvVRAaz4v-ftZ1C-PEl-7" target="FyvVRAaz4v-ftZ1C-PEl-11">
          <mxGeometry relative="1" as="geometry" />
        </mxCell>
        <mxCell id="FyvVRAaz4v-ftZ1C-PEl-7" value="Bridge cni0&lt;div&gt;10.244.0.1&lt;/div&gt;" style="rounded=0;whiteSpace=wrap;html=1;" vertex="1" parent="FyvVRAaz4v-ftZ1C-PEl-1">
          <mxGeometry x="470" y="530" width="120" height="60" as="geometry" />
        </mxCell>
        <mxCell id="FyvVRAaz4v-ftZ1C-PEl-8" style="edgeStyle=orthogonalEdgeStyle;rounded=0;orthogonalLoop=1;jettySize=auto;html=1;exitX=1;exitY=0.5;exitDx=0;exitDy=0;endArrow=classic;startFill=1;entryX=0;entryY=0.5;entryDx=0;entryDy=0;startArrow=classic;endFill=1;" edge="1" parent="FyvVRAaz4v-ftZ1C-PEl-1" source="FyvVRAaz4v-ftZ1C-PEl-9" target="FyvVRAaz4v-ftZ1C-PEl-18">
          <mxGeometry relative="1" as="geometry">
            <mxPoint x="940" y="810" as="targetPoint" />
          </mxGeometry>
        </mxCell>
        <mxCell id="FyvVRAaz4v-ftZ1C-PEl-9" value="eth0&lt;div&gt;192.168.49.2&lt;/div&gt;" style="rounded=0;whiteSpace=wrap;html=1;" vertex="1" parent="FyvVRAaz4v-ftZ1C-PEl-1">
          <mxGeometry x="470" y="780" width="120" height="60" as="geometry" />
        </mxCell>
        <mxCell id="FyvVRAaz4v-ftZ1C-PEl-10" style="edgeStyle=orthogonalEdgeStyle;rounded=0;orthogonalLoop=1;jettySize=auto;html=1;exitX=0.5;exitY=1;exitDx=0;exitDy=0;entryX=0.5;entryY=0;entryDx=0;entryDy=0;startArrow=classic;startFill=1;endArrow=classic;endFill=1;" edge="1" parent="FyvVRAaz4v-ftZ1C-PEl-1" source="FyvVRAaz4v-ftZ1C-PEl-11" target="FyvVRAaz4v-ftZ1C-PEl-9">
          <mxGeometry relative="1" as="geometry" />
        </mxCell>
        <mxCell id="FyvVRAaz4v-ftZ1C-PEl-11" value="Bridge flannel.1&lt;div&gt;10.244.0.0/32&lt;/div&gt;" style="rounded=0;whiteSpace=wrap;html=1;" vertex="1" parent="FyvVRAaz4v-ftZ1C-PEl-1">
          <mxGeometry x="470" y="660" width="120" height="60" as="geometry" />
        </mxCell>
        <mxCell id="FyvVRAaz4v-ftZ1C-PEl-12" value="" style="rounded=1;whiteSpace=wrap;html=1;" vertex="1" parent="FyvVRAaz4v-ftZ1C-PEl-1">
          <mxGeometry x="870" y="370" width="440" height="120" as="geometry" />
        </mxCell>
        <mxCell id="FyvVRAaz4v-ftZ1C-PEl-13" value="Deploy" style="text;html=1;align=center;verticalAlign=middle;whiteSpace=wrap;rounded=0;" vertex="1" parent="FyvVRAaz4v-ftZ1C-PEl-1">
          <mxGeometry x="870" y="370" width="60" height="30" as="geometry" />
        </mxCell>
        <mxCell id="FyvVRAaz4v-ftZ1C-PEl-14" style="rounded=0;orthogonalLoop=1;jettySize=auto;html=1;exitX=0.5;exitY=0;exitDx=0;exitDy=0;endArrow=classic;startFill=1;entryX=0.5;entryY=1;entryDx=0;entryDy=0;startArrow=classic;endFill=1;" edge="1" parent="FyvVRAaz4v-ftZ1C-PEl-1" source="FyvVRAaz4v-ftZ1C-PEl-17" target="FyvVRAaz4v-ftZ1C-PEl-19">
          <mxGeometry relative="1" as="geometry" />
        </mxCell>
        <mxCell id="FyvVRAaz4v-ftZ1C-PEl-15" style="edgeStyle=orthogonalEdgeStyle;rounded=0;orthogonalLoop=1;jettySize=auto;html=1;exitX=0.5;exitY=1;exitDx=0;exitDy=0;entryX=0.5;entryY=0;entryDx=0;entryDy=0;startArrow=classic;startFill=1;endArrow=classic;endFill=1;" edge="1" parent="FyvVRAaz4v-ftZ1C-PEl-1" source="FyvVRAaz4v-ftZ1C-PEl-17" target="FyvVRAaz4v-ftZ1C-PEl-21">
          <mxGeometry relative="1" as="geometry" />
        </mxCell>
        <mxCell id="FyvVRAaz4v-ftZ1C-PEl-16" style="rounded=0;orthogonalLoop=1;jettySize=auto;html=1;exitX=0.5;exitY=0;exitDx=0;exitDy=0;entryX=0.5;entryY=1;entryDx=0;entryDy=0;startArrow=classic;startFill=1;" edge="1" parent="FyvVRAaz4v-ftZ1C-PEl-1" source="FyvVRAaz4v-ftZ1C-PEl-17" target="FyvVRAaz4v-ftZ1C-PEl-27">
          <mxGeometry relative="1" as="geometry" />
        </mxCell>
        <mxCell id="FyvVRAaz4v-ftZ1C-PEl-17" value="Bridge cni0&lt;div&gt;10.244.1.1&lt;/div&gt;" style="rounded=0;whiteSpace=wrap;html=1;" vertex="1" parent="FyvVRAaz4v-ftZ1C-PEl-1">
          <mxGeometry x="1030" y="530" width="120" height="60" as="geometry" />
        </mxCell>
        <mxCell id="FyvVRAaz4v-ftZ1C-PEl-18" value="eth0&lt;div&gt;192.168.49.3&lt;/div&gt;" style="rounded=0;whiteSpace=wrap;html=1;" vertex="1" parent="FyvVRAaz4v-ftZ1C-PEl-1">
          <mxGeometry x="1030" y="780" width="120" height="60" as="geometry" />
        </mxCell>
        <mxCell id="FyvVRAaz4v-ftZ1C-PEl-19" value="Pod2&lt;br&gt;&lt;div&gt;10.244.1.2&lt;/div&gt;" style="rounded=0;whiteSpace=wrap;html=1;" vertex="1" parent="FyvVRAaz4v-ftZ1C-PEl-1">
          <mxGeometry x="940" y="400" width="120" height="60" as="geometry" />
        </mxCell>
        <mxCell id="FyvVRAaz4v-ftZ1C-PEl-20" style="edgeStyle=orthogonalEdgeStyle;rounded=0;orthogonalLoop=1;jettySize=auto;html=1;exitX=0.5;exitY=1;exitDx=0;exitDy=0;entryX=0.5;entryY=0;entryDx=0;entryDy=0;startArrow=classic;startFill=1;endArrow=classic;endFill=1;" edge="1" parent="FyvVRAaz4v-ftZ1C-PEl-1" source="FyvVRAaz4v-ftZ1C-PEl-21" target="FyvVRAaz4v-ftZ1C-PEl-18">
          <mxGeometry relative="1" as="geometry" />
        </mxCell>
        <mxCell id="FyvVRAaz4v-ftZ1C-PEl-21" value="Bridge flannel.1&lt;div&gt;10.244.1.0/32&lt;/div&gt;" style="rounded=0;whiteSpace=wrap;html=1;" vertex="1" parent="FyvVRAaz4v-ftZ1C-PEl-1">
          <mxGeometry x="1030" y="660" width="120" height="60" as="geometry" />
        </mxCell>
        <mxCell id="FyvVRAaz4v-ftZ1C-PEl-22" value="" style="endArrow=none;dashed=1;html=1;dashPattern=1 3;strokeWidth=2;rounded=0;" edge="1" parent="FyvVRAaz4v-ftZ1C-PEl-1">
          <mxGeometry width="50" height="50" relative="1" as="geometry">
            <mxPoint x="828" y="920" as="sourcePoint" />
            <mxPoint x="828" y="280" as="targetPoint" />
          </mxGeometry>
        </mxCell>
        <mxCell id="FyvVRAaz4v-ftZ1C-PEl-23" value="Master&amp;nbsp;&lt;div&gt;Node&lt;/div&gt;" style="text;html=1;align=center;verticalAlign=middle;whiteSpace=wrap;rounded=0;" vertex="1" parent="FyvVRAaz4v-ftZ1C-PEl-1">
          <mxGeometry x="760" y="280" width="60" height="30" as="geometry" />
        </mxCell>
        <mxCell id="FyvVRAaz4v-ftZ1C-PEl-24" value="Worker&lt;br&gt;&lt;div&gt;Node&lt;/div&gt;" style="text;html=1;align=center;verticalAlign=middle;whiteSpace=wrap;rounded=0;" vertex="1" parent="FyvVRAaz4v-ftZ1C-PEl-1">
          <mxGeometry x="840" y="280" width="60" height="30" as="geometry" />
        </mxCell>
        <mxCell id="FyvVRAaz4v-ftZ1C-PEl-25" value="" style="curved=1;endArrow=classic;html=1;rounded=0;startArrow=classic;startFill=1;sketch=1;curveFitting=1;jiggle=2;endSize=10;startSize=10;fillColor=#d5e8d4;strokeColor=#82b366;" edge="1" parent="FyvVRAaz4v-ftZ1C-PEl-1">
          <mxGeometry width="50" height="50" relative="1" as="geometry">
            <mxPoint x="540" y="730" as="sourcePoint" />
            <mxPoint x="1070" y="730" as="targetPoint" />
            <Array as="points">
              <mxPoint x="660" y="840" />
              <mxPoint x="830" y="840" />
              <mxPoint x="990" y="830" />
            </Array>
          </mxGeometry>
        </mxCell>
        <mxCell id="FyvVRAaz4v-ftZ1C-PEl-26" value="VXLAN" style="edgeLabel;html=1;align=center;verticalAlign=middle;resizable=0;points=[];" vertex="1" connectable="0" parent="FyvVRAaz4v-ftZ1C-PEl-25">
          <mxGeometry x="-0.0026" y="3" relative="1" as="geometry">
            <mxPoint x="20" y="3" as="offset" />
          </mxGeometry>
        </mxCell>
        <mxCell id="FyvVRAaz4v-ftZ1C-PEl-27" value="Pod3&lt;br&gt;&lt;div&gt;10.244.1.3&lt;/div&gt;" style="rounded=0;whiteSpace=wrap;html=1;" vertex="1" parent="FyvVRAaz4v-ftZ1C-PEl-1">
          <mxGeometry x="1110" y="400" width="120" height="60" as="geometry" />
        </mxCell>
      </root>
    </mxGraphModel>
  </diagram>
</mxfile>
